<svg width="55" height="55" viewBox="0 0 55 55" fill="none" xmlns="http://www.w3.org/2000/svg">
<path d="M22.0957 12.8812C23.4711 12.3044 24.0479 10.6627 23.4267 9.33168L21.2527 4.7617C20.6315 3.47545 19.1229 2.89821 17.7919 3.47545C14.0205 5.07272 10.7816 7.15806 8.20823 9.68708C5.05804 12.6593 2.92834 16.0757 1.77475 19.8471C0.621163 23.6632 0 28.854 0 35.4649V49.0861C0 50.5503 1.19796 51.7483 2.66213 51.7483H20.0991C21.5632 51.7483 22.7612 50.5503 22.7612 49.0861V31.6492C22.7612 30.1846 21.5632 28.9871 20.0991 28.9871H11.7577C11.8465 24.5054 12.9113 20.9119 14.8635 18.205C16.4608 16.0318 18.8567 14.2571 22.0957 12.8812Z" fill="url(#paint0_linear_87_6810)"/>
<path d="M53.4199 12.8812C54.7954 12.3044 55.3717 10.6627 54.751 9.33167L52.5769 4.8065C51.9558 3.51981 50.4472 2.94301 49.1162 3.51981C45.3892 5.11708 42.1942 7.20242 39.5769 9.68707C36.4263 12.7041 34.2526 16.1205 33.0986 19.8919C31.945 23.6184 31.3687 28.81 31.3687 35.4653V49.0866C31.3687 50.5507 32.5666 51.7487 34.0308 51.7487H51.4677C52.9319 51.7487 54.1298 50.5507 54.1298 49.0866V31.6496C54.1298 30.185 52.9319 28.9875 51.4677 28.9875H43.082C43.1708 24.5058 44.236 20.9124 46.1878 18.2054C47.7851 16.0318 50.181 14.2571 53.4199 12.8812Z" fill="url(#paint1_linear_87_6810)"/>
<defs>
<linearGradient id="paint0_linear_87_6810" x1="1.39966" y1="51.7483" x2="26.9059" y2="50.0406" gradientUnits="userSpaceOnUse">
<stop stop-color="#0EA5EA"/>
<stop offset="1" stop-color="#0BD1D1"/>
</linearGradient>
<linearGradient id="paint1_linear_87_6810" x1="32.7657" y1="51.7487" x2="58.2241" y2="50.0459" gradientUnits="userSpaceOnUse">
<stop stop-color="#0EA5EA"/>
<stop offset="1" stop-color="#0BD1D1"/>
</linearGradient>
</defs>
</svg>
