<svg width="18" height="18" viewBox="0 0 18 18" fill="none" xmlns="http://www.w3.org/2000/svg">
<g clip-path="url(#clip0_87_6836)">
<path fill-rule="evenodd" clip-rule="evenodd" d="M9.2493 0.500549C4.4173 0.500549 0.499023 4.4178 0.499023 9.25082C0.499023 12.8326 2.65367 15.9113 5.73746 17.2644C5.71277 16.6542 5.73335 15.9195 5.88872 15.2548C6.05747 14.5448 7.01439 10.4876 7.01439 10.4876C7.01439 10.4876 6.73555 9.92892 6.73555 9.10266C6.73555 7.80617 7.48772 6.83792 8.42304 6.83792C9.21843 6.83792 9.60327 7.43574 9.60327 8.1519C9.60327 8.9514 9.0929 10.1481 8.83052 11.2563C8.61135 12.1854 9.2956 12.9417 10.2114 12.9417C11.869 12.9417 12.9855 10.8128 12.9855 8.28978C12.9855 6.37283 11.6941 4.93742 9.34499 4.93742C6.6913 4.93742 5.03777 6.91612 5.03777 9.12632C5.03777 9.88981 5.26208 10.4269 5.61399 10.8426C5.77656 11.035 5.79817 11.1112 5.73952 11.3314C5.69836 11.4909 5.60164 11.8798 5.56151 12.0331C5.50286 12.2544 5.32382 12.3346 5.1242 12.2523C3.90077 11.7533 3.33176 10.4146 3.33176 8.90921C3.33176 6.42428 5.42774 3.44235 9.58474 3.44235C12.9258 3.44235 15.1247 5.86144 15.1247 8.45544C15.1247 11.8881 13.217 14.4522 10.4028 14.4522C9.45921 14.4522 8.57018 13.9419 8.26561 13.3626C8.26561 13.3626 7.75731 15.3783 7.65029 15.7672C7.46508 16.4412 7.10186 17.1162 6.7695 17.641C7.55666 17.8735 8.38806 18.0001 9.2493 18.0001C14.0813 18.0001 17.9985 14.0828 17.9985 9.25082C17.9985 4.4178 14.0813 0.500549 9.2493 0.500549Z" fill="#98A2B3"/>
</g>
<defs>
<clipPath id="clip0_87_6836">
<rect width="17.4995" height="17.4995" fill="white" transform="translate(0.499023 0.500473)"/>
</clipPath>
</defs>
</svg>
