<svg width="22" height="18" viewBox="0 0 22 18" fill="none" xmlns="http://www.w3.org/2000/svg">
<g clip-path="url(#clip0_87_6831)">
<path fill-rule="evenodd" clip-rule="evenodd" d="M21.4989 2.57215C20.7273 2.92353 19.8966 3.16116 19.0252 3.26733C19.9151 2.7213 20.5979 1.85549 20.9196 0.824096C20.0864 1.32968 19.1657 1.69749 18.1821 1.89467C17.3982 1.03644 16.2777 0.500519 15.0378 0.500519C12.6601 0.500519 10.7311 2.47861 10.7311 4.91806C10.7311 5.26438 10.7681 5.6006 10.8421 5.92417C7.26143 5.73964 4.08754 3.98273 1.96135 1.30692C1.59034 1.96166 1.37833 2.7213 1.37833 3.53023C1.37833 5.06215 2.13884 6.41459 3.295 7.20709C2.58997 7.18561 1.92437 6.98464 1.34259 6.65601V6.71035C1.34259 8.8515 2.82785 10.6375 4.79997 11.0419C4.43883 11.1456 4.05796 11.1974 3.66477 11.1974C3.38744 11.1974 3.11627 11.1709 2.85373 11.119C3.40223 12.8734 4.99225 14.1513 6.8781 14.1854C5.40393 15.371 3.54521 16.0776 1.52748 16.0776C1.17989 16.0776 0.836005 16.0573 0.499512 16.0169C2.40631 17.2682 4.67179 18 7.10366 18C15.0291 18 19.3616 11.2695 19.3616 5.43123C19.3616 5.2391 19.3579 5.04698 19.3506 4.85865C20.1924 4.23552 20.9233 3.45819 21.4989 2.57215Z" fill="#98A2B3"/>
</g>
<defs>
<clipPath id="clip0_87_6831">
<rect width="20.9994" height="17.4995" fill="white" transform="translate(0.499512 0.500473)"/>
</clipPath>
</defs>
</svg>
