<svg width="205" height="48" viewBox="0 0 205 48" fill="none" xmlns="http://www.w3.org/2000/svg">
<g clip-path="url(#clip0_59_4524)">
<path d="M38.6264 4.74932C39.1119 4.26379 38.7882 3.40063 38.0869 3.40063H33.3935C31.8829 3.40063 30.4264 3.99406 29.4014 5.073L20.8237 13.5967L25.3014 18.0743L38.6264 4.74932Z" fill="#C9DAF5"/>
<path d="M16.2921 18.1284L19.0434 20.8797C20.0144 21.8507 21.525 21.8507 22.496 20.8797L24.7618 18.6139L25.2473 18.1284L20.7697 13.6507L17.9644 10.8455C16.9394 9.82047 15.4829 9.22705 14.0263 9.22705H7.39075L16.2921 18.1284Z" fill="#66768F"/>
<path d="M2.96717 43.6453C2.48164 44.1308 2.80532 44.994 3.50664 44.994H8.25401C9.71059 44.994 11.1672 44.4006 12.1922 43.3756L20.7698 34.7979L16.2922 30.3203L2.96717 43.6453Z" fill="#C9DAF5"/>
<path d="M22.4961 27.5152C21.525 26.5441 20.0145 26.5441 19.0434 27.5152L16.7776 29.7809L16.2921 30.2665L20.7697 34.7441L23.575 37.5494C24.654 38.6283 26.1105 39.2217 27.6211 39.2217H34.2026L25.3013 30.3204L22.4961 27.5152Z" fill="#66768F"/>
<path d="M10.1961 24.2244L7.39079 27.0296L14.6737 19.7467L1.34868 6.3678C0.863158 5.88227 0 6.20596 0 6.90727V11.6007C0 13.1112 0.593421 14.5139 1.67237 15.5928L10.1961 24.2244Z" fill="#C9DAF5"/>
<path d="M5.77234 30.9679V37.6034L14.7276 28.6481L17.4789 25.8429C18.45 24.8718 18.45 23.3613 17.4789 22.3902L14.7276 19.6389L7.39076 27.0297C6.36576 28.0547 5.77234 29.5113 5.77234 30.9679Z" fill="#66768F"/>
<path d="M26.9736 28.6481L40.2986 42.027C40.7842 42.5125 41.5934 42.1888 41.5934 41.4875V36.7402C41.5934 35.2296 40.9999 33.827 39.9749 32.802L31.4513 24.2244L26.9736 28.6481Z" fill="#C9DAF5"/>
<path d="M35.875 17.4807V10.7913L26.9737 19.6926L24.2763 22.4439C23.3592 23.4149 23.3592 24.9255 24.2763 25.8965L27.0276 28.6478L34.3105 21.3649C35.2816 20.3399 35.875 18.9373 35.875 17.4807Z" fill="#66768F"/>
</g>
<path d="M50.0258 35.6973L60.982 11.3691H69.3862L80.3424 35.6973H74.422L72.1083 30.5594H58.2599L55.9462 35.6973H50.0258ZM60.2334 26.1361H70.1348L65.4053 15.6223H64.9629L60.2334 26.1361ZM85.6583 43.353V39.4401H95.934C97.295 39.4401 97.9755 38.7482 97.9755 37.3645V35.6973H90.4899C87.4503 35.6973 85.0799 34.9487 83.3786 33.4516C81.6774 31.9545 80.8267 29.7882 80.8267 26.9527C80.8267 24.0946 81.6774 21.917 83.3786 20.4199C85.0799 18.9228 87.4503 18.1742 90.4899 18.1742H102.909V37.977C102.909 39.5875 102.444 40.8805 101.514 41.8559C100.584 42.8539 99.1324 43.353 97.1589 43.353H85.6583ZM90.4899 31.7843H97.9755V22.0871H90.4899C89.0155 22.0871 87.8813 22.4954 87.0874 23.312C86.3162 24.106 85.9305 25.3195 85.9305 26.9527C85.9305 28.5633 86.3162 29.7769 87.0874 30.5935C87.8813 31.3874 89.0155 31.7843 90.4899 31.7843ZM115.622 35.8674C112.583 35.8674 110.212 35.1188 108.511 33.6217C106.81 32.1019 105.959 29.8789 105.959 26.9527C105.959 24.0039 106.81 21.7809 108.511 20.2838C110.212 18.764 112.583 18.0041 115.622 18.0041H121.917C124.956 18.0041 127.327 18.764 129.028 20.2838C130.729 21.7809 131.58 24.0039 131.58 26.9527C131.58 29.8789 130.729 32.1019 129.028 33.6217C127.327 35.1188 124.956 35.8674 121.917 35.8674H115.622ZM115.622 31.9545H121.917C123.391 31.9545 124.514 31.5462 125.285 30.7296C126.079 29.913 126.476 28.654 126.476 26.9527C126.476 25.2288 126.079 23.9585 125.285 23.1419C124.514 22.3253 123.391 21.917 121.917 21.917H115.622C114.148 21.917 113.014 22.3253 112.22 23.1419C111.448 23.9585 111.063 25.2288 111.063 26.9527C111.063 28.654 111.448 29.913 112.22 30.7296C113.014 31.5462 114.148 31.9545 115.622 31.9545ZM134.629 35.6973V18.1742H149.907C151.903 18.1742 153.355 18.6732 154.262 19.6713C155.192 20.6467 155.657 21.9397 155.657 23.5502V35.6973H150.723V24.1286C150.723 22.7676 150.043 22.0871 148.682 22.0871H139.563V35.6973H134.629Z" fill="#C9DAF5"/>
<defs>
<clipPath id="clip0_59_4524">
<rect width="41.5934" height="41.5934" fill="white" transform="translate(0 3.40063)"/>
</clipPath>
</defs>
</svg>
