<svg width="205" height="53" viewBox="0 0 205 53" fill="none" xmlns="http://www.w3.org/2000/svg">
<g clip-path="url(#clip0_59_4528)">
<path d="M14.7276 8.96701C13.2711 15.3328 8.25395 20.296 1.94211 21.7525C0.809211 22.0223 0 22.9933 0 24.1262V28.8736C0 30.3841 1.34868 31.517 2.85921 31.2473C6.68947 30.546 10.1961 29.0354 13.2711 26.9315C15.8605 25.1512 18.0724 22.8854 19.9066 20.296C22.3882 16.7354 24.0066 12.5275 24.4921 7.99595C24.5461 7.45648 24.1684 7.0249 23.6289 7.0249H17.1013C15.9684 7.0249 14.9974 7.83411 14.7276 8.96701Z" fill="#C9DAF5"/>
<path d="M19.9066 32.7038C18.1263 30.1144 15.8605 27.9025 13.2711 26.0683C10.1961 23.9104 6.68947 22.3999 2.85921 21.7525C1.34868 21.4828 0 22.6157 0 24.1262V28.8736C0 30.0065 0.809211 30.9775 1.94211 31.2473C8.3079 32.7038 13.325 37.7209 14.7276 44.0328C14.9974 45.1657 15.9684 45.9749 17.1013 45.9749H23.6289C24.1145 45.9749 24.5461 45.5433 24.4921 45.0038C24.0066 40.4723 22.3882 36.2644 19.9066 32.7038Z" fill="#66768F"/>
<path d="M27.0276 45.0038C26.9736 45.4894 27.3513 45.9749 27.8907 45.9749H34.4184C35.5513 45.9749 36.5223 45.1657 36.7921 44.0328C38.2486 37.667 43.2657 32.7038 49.5776 31.2473C50.7105 30.9775 51.5197 30.0065 51.5197 28.8736V24.1262C51.5197 22.6157 50.171 21.4828 48.6605 21.7525C44.8302 22.4538 41.3236 23.9644 38.2486 26.0683C35.6592 27.8486 33.4473 30.1144 31.6131 32.7038C29.1315 36.2644 27.5131 40.4723 27.0276 45.0038Z" fill="#C9DAF5"/>
<path d="M34.4184 7.0249H27.8907C27.3513 7.0249 26.9736 7.45648 27.0276 7.99595C27.5131 12.5275 29.1315 16.7354 31.6131 20.296C33.3934 22.8854 35.6592 25.0973 38.2486 26.9315C41.3236 29.0894 44.8302 30.5999 48.6605 31.2473C50.171 31.517 51.5197 30.3841 51.5197 28.8736V24.1262C51.5197 22.9933 50.7105 22.0223 49.5776 21.7525C43.2118 20.296 38.2486 15.2788 36.7921 8.96701C36.5223 7.83411 35.5513 7.0249 34.4184 7.0249Z" fill="#66768F"/>
</g>
<path d="M77.8971 33.8407C78.3777 33.8407 78.7317 34.0303 78.9593 34.4097C79.2123 34.7638 79.3387 35.1558 79.3387 35.5857C79.3387 36.1168 79.2502 36.4962 79.0732 36.7238C78.9214 36.9261 78.6179 37.1411 78.1627 37.3687C77.1005 37.8746 75.7853 38.2792 74.2173 38.5827C72.6493 38.8862 70.9674 39.0379 69.1718 39.0379C66.9209 39.0379 65.2643 38.6586 64.2021 37.8998C63.1652 37.1411 62.5203 36.2306 62.2674 35.1684C62.0397 34.0809 61.9259 32.6646 61.9259 30.9196C61.9259 29.048 62.0018 27.2144 62.1536 25.4188C62.3053 23.5979 62.5709 21.2837 62.9502 18.4764C63.1272 17.2625 63.6078 16.3899 64.3918 15.8588C65.1758 15.3024 66.0357 15.0242 66.9715 15.0242C67.7555 15.0242 69.0327 14.999 70.803 14.9484L74.1035 14.9104C75.4692 14.9104 76.4555 14.9484 77.0625 15.0242C77.8213 15.176 78.3777 15.353 78.7317 15.5553C79.1111 15.7324 79.3008 16.0485 79.3008 16.5038C79.3008 17.0096 79.1237 17.5027 78.7697 17.9833C78.4409 18.4638 77.9351 18.7041 77.2522 18.7041C76.4682 18.7041 75.3427 18.6535 73.8759 18.5523C72.409 18.4512 71.3089 18.4006 70.5754 18.4006C69.9431 18.4006 69.3235 18.4385 68.7165 18.5144C68.0084 18.565 67.5026 18.6535 67.1991 18.7799C66.8956 18.9064 66.7186 19.1214 66.668 19.4249C66.3139 22.0298 66.1369 23.9519 66.1369 25.1912C66.7186 25.267 67.2876 25.305 67.844 25.305C68.5521 25.305 69.3109 25.267 70.1202 25.1912C70.9295 25.1153 71.448 25.0647 71.6756 25.0394C73.016 24.913 74.1667 24.8497 75.1278 24.8497C75.6842 24.8497 76.1015 24.9509 76.3797 25.1532C76.6832 25.3556 76.8349 25.6338 76.8349 25.9878C76.8349 26.5442 76.6832 26.9742 76.3797 27.2777C76.1015 27.5812 75.5957 27.8088 74.8622 27.9605C73.977 28.1376 72.8769 28.2767 71.5618 28.3778C70.2719 28.479 69.0074 28.5296 67.7681 28.5296C67.3382 28.5296 66.7438 28.5043 65.9851 28.4537C65.9092 29.9964 65.8713 31.4254 65.8713 32.7405C65.8713 34.5362 67.06 35.434 69.4373 35.434C70.7019 35.434 71.7514 35.3455 72.586 35.1684C73.4206 34.9914 74.3817 34.7385 75.4692 34.4097C76.4808 34.0303 77.2901 33.8407 77.8971 33.8407ZM90.9241 29.2504C91 29.048 91.2655 28.3146 91.7208 27.0501C92.2013 25.7855 92.6439 24.8245 93.0485 24.1669C93.7061 23.13 94.2878 22.6115 94.7936 22.6115C95.5018 22.6115 96.0455 22.7506 96.4249 23.0288C96.8042 23.2817 96.9939 23.6484 96.9939 24.129C96.9939 24.3566 96.8928 24.6727 96.6904 25.0774C96.5134 25.482 96.4122 25.7223 96.3869 25.7982C95.3753 28.0238 94.4648 30.4137 93.6555 32.9681L92.8589 35.9272C92.5554 36.8882 92.0369 37.6722 91.3035 38.2792C90.57 38.8609 89.7101 39.1517 88.7238 39.1517C87.8386 39.1517 87.0167 38.7471 86.2579 37.9378C85.8027 37.2296 85.3222 36.3318 84.8164 35.2443C84.3358 34.1568 83.9185 33.0946 83.5645 32.0577L82.2367 28.0743C81.9585 27.2903 81.7309 26.6201 81.5538 26.0637C81.4021 25.5073 81.3262 25.0015 81.3262 24.5463C81.3009 24.0152 81.4527 23.5852 81.7814 23.2564C82.1102 22.9276 82.5655 22.7633 83.1472 22.7633C83.8047 22.7633 84.2726 22.9024 84.5508 23.1806C84.829 23.4335 85.0819 23.8381 85.3095 24.3945C85.4107 24.9762 85.6889 26.1649 86.1441 27.9605L86.4097 29.0227C86.6373 29.8826 86.9281 30.7552 87.2822 31.6404C87.6363 32.5255 87.9904 33.3728 88.3444 34.1821C88.2939 34.0556 88.4709 34.4729 88.8755 35.434C89.1285 34.7005 89.4193 33.8027 89.7481 32.7405L90.9241 29.2504ZM116.735 37.1791C116.735 37.7355 116.432 38.2033 115.825 38.5827C115.243 38.9621 114.699 39.1517 114.194 39.1517C113.233 39.1517 112.461 39.0379 111.879 38.8103C111.323 38.5574 110.805 38.1022 110.324 37.4446C109.667 38.0263 108.769 38.4689 107.631 38.7724C106.493 39.0506 105.443 39.1897 104.482 39.1897C102.914 39.1897 101.624 38.7724 100.612 37.9378C99.6008 37.0779 99.0949 35.826 99.0949 34.1821C99.0949 33.4739 99.2846 32.829 99.664 32.2473C100.043 31.6404 100.562 31.1092 101.219 30.654C101.953 30.1735 102.787 29.8068 103.723 29.5539C104.659 29.2757 105.633 29.1366 106.644 29.1366C107.175 29.1366 107.808 29.2377 108.541 29.44C109.275 29.6424 109.844 29.8573 110.248 30.085V29.478C110.248 28.1123 109.919 27.1765 109.262 26.6707C108.604 26.1396 107.542 25.874 106.075 25.874C105.645 25.874 105.215 25.9625 104.785 26.1396C104.381 26.3166 103.913 26.5569 103.382 26.8604C102.674 27.2397 102.003 27.4294 101.371 27.4294C101.144 27.4294 100.929 27.2777 100.726 26.9742C100.524 26.6454 100.423 26.3546 100.423 26.1016C100.423 25.3682 100.764 24.7359 101.447 24.2048C102.155 23.6737 102.99 23.2817 103.951 23.0288C104.912 22.7506 105.772 22.6115 106.53 22.6115C107.289 22.6115 108.162 22.7633 109.148 23.0667C110.134 23.3449 110.944 23.737 111.576 24.2428C112.335 24.9003 112.916 25.6717 113.321 26.5569C113.751 27.4168 113.966 28.3652 113.966 29.4021C113.966 29.7309 113.941 30.2241 113.89 30.8816C113.84 31.5898 113.814 32.1968 113.814 32.7026C113.814 32.9302 113.789 33.2716 113.738 33.7269C113.688 34.2832 113.662 34.7258 113.662 35.0546C113.662 35.3581 113.776 35.6237 114.004 35.8513C114.232 36.0536 114.497 36.1548 114.801 36.1548L115.863 36.1168C116.141 36.1168 116.356 36.218 116.508 36.4203C116.659 36.6227 116.735 36.8756 116.735 37.1791ZM104.52 36.1927C105.607 36.1927 106.518 36.0789 107.251 35.8513C107.985 35.6237 108.87 35.2064 109.907 34.5994C110.008 34.1694 110.071 33.6004 110.096 32.8923C108.705 32.2347 107.555 31.9059 106.644 31.9059C105.607 31.9059 104.684 32.0956 103.875 32.475C103.066 32.8543 102.661 33.5245 102.661 34.4856C102.661 34.9661 102.863 35.3708 103.268 35.6995C103.673 36.0283 104.09 36.1927 104.52 36.1927ZM119.386 25.6843C118.728 25.2291 118.399 24.7486 118.399 24.2428C118.399 23.8887 118.551 23.5599 118.854 23.2564C119.158 22.9529 119.613 22.8012 120.22 22.8012C120.928 22.8012 121.561 22.9909 122.117 23.3702C122.699 23.7243 123.103 24.2428 123.331 24.9256C123.913 24.2428 124.57 23.699 125.304 23.2944C126.062 22.8897 126.834 22.6874 127.618 22.6874C128.553 22.6874 129.401 22.9403 130.159 23.4461C130.918 23.9519 131.298 24.6348 131.298 25.4947C131.298 25.9752 131.083 26.4684 130.653 26.9742C130.248 27.48 129.831 27.7329 129.401 27.7329C129.173 27.7329 128.971 27.6823 128.794 27.5812C128.642 27.4547 128.452 27.2777 128.225 27.0501C127.972 26.7971 127.757 26.6201 127.58 26.5189C127.403 26.3925 127.2 26.3293 126.973 26.3293C126.568 26.3293 126.189 26.3925 125.835 26.5189C125.481 26.6454 125.24 26.7971 125.114 26.9742C124.709 27.6065 124.406 28.1755 124.203 28.6813C124.026 29.1871 123.938 29.7309 123.938 30.3126C123.938 30.7425 123.925 31.084 123.9 31.3369L123.862 33.4992C123.862 33.828 123.875 34.1947 123.9 34.5994C123.925 35.004 123.951 35.3075 123.976 35.5099C124.052 36.1927 124.09 36.8503 124.09 37.4825C124.09 37.9125 123.925 38.2919 123.596 38.6206C123.268 38.9494 122.863 39.1138 122.383 39.1138C121.624 39.1138 121.067 38.9747 120.713 38.6965C120.359 38.393 120.182 37.8493 120.182 37.0652L120.144 34.6373C120.119 34.1568 120.106 33.4739 120.106 32.5888L120.144 30.085C120.195 28.871 120.22 27.8847 120.22 27.1259C120.22 26.8477 120.157 26.5948 120.03 26.3672C119.929 26.1396 119.714 25.912 119.386 25.6843ZM147.926 39.1517C147.066 39.1517 146.409 39.0253 145.953 38.7724C145.498 38.4942 145.005 37.9884 144.474 37.2549C143.816 37.8366 142.83 38.3045 141.515 38.6586C140.225 39.0126 139.112 39.1897 138.176 39.1897C136.634 39.1897 135.382 38.7724 134.421 37.9378C133.485 37.0779 133.017 35.826 133.017 34.1821C133.017 33.4739 133.207 32.829 133.586 32.2473C133.991 31.6404 134.509 31.1092 135.142 30.654C135.85 30.1735 136.684 29.7941 137.645 29.5159C138.632 29.2377 139.53 29.0986 140.339 29.0986C141.705 29.0986 142.919 29.2251 143.981 29.478V29.44C143.981 28.0743 143.639 27.1386 142.956 26.6328C142.299 26.1016 141.237 25.8361 139.77 25.8361C138.834 25.8361 138.025 26.2534 137.342 27.088C137.089 27.4168 136.558 27.5812 135.749 27.5812C135.344 27.5812 135.04 27.4168 134.838 27.088C134.661 26.7339 134.573 26.3798 134.573 26.0258C134.573 25.2923 134.876 24.6601 135.483 24.129C136.115 23.5979 136.874 23.2058 137.759 22.9529C138.644 22.6747 139.466 22.5356 140.225 22.5356C140.958 22.5356 141.831 22.6874 142.843 22.9909C143.854 23.2944 144.676 23.699 145.308 24.2048C146.067 24.8624 146.649 25.6338 147.054 26.5189C147.484 27.3788 147.698 28.3272 147.698 29.3642C147.698 29.693 147.673 30.1861 147.623 30.8437C147.572 31.6024 147.547 32.222 147.547 32.7026C147.547 32.9302 147.521 33.221 147.471 33.5751C147.42 34.0303 147.395 34.4097 147.395 34.7132C147.395 35.042 147.496 35.3581 147.698 35.6616C147.901 35.9651 148.179 36.218 148.533 36.4203C148.862 36.5974 149.077 36.787 149.178 36.9894C149.279 37.1917 149.33 37.4193 149.33 37.6722C149.33 37.9251 149.165 38.2413 148.837 38.6206C148.533 38.9747 148.23 39.1517 147.926 39.1517ZM140.339 31.9059C139.352 31.9059 138.48 32.0956 137.721 32.475C136.963 32.8543 136.583 33.5245 136.583 34.4856C136.583 34.9661 136.748 35.3708 137.076 35.6995C137.43 36.0283 137.81 36.1927 138.214 36.1927C139.302 36.1927 140.212 36.0789 140.946 35.8513C141.679 35.6237 142.564 35.2064 143.601 34.5994C143.728 34.1947 143.804 33.6257 143.829 32.8923C143.829 32.6141 143.842 32.3991 143.867 32.2473C142.501 32.0197 141.325 31.9059 140.339 31.9059Z" fill="#C9DAF5"/>
<defs>
<clipPath id="clip0_59_4528">
<rect width="51.5197" height="38.95" fill="white" transform="translate(0 7.0249)"/>
</clipPath>
</defs>
</svg>
