<svg width="205" height="53" viewBox="0 0 205 53" fill="none" xmlns="http://www.w3.org/2000/svg">
<g clip-path="url(#clip0_59_4526)">
<path d="M17.8566 36.2104L17.3711 35.0236C16.7237 33.3512 15.4289 32.0565 13.7566 31.4091L12.5697 30.9236L12.0842 30.7078L9.3329 29.6288L8.73947 29.4131L5.88026 28.2802L3.56053 27.3631C3.18289 27.2012 2.96711 26.9315 2.96711 26.4999C2.96711 26.1223 3.18289 25.7986 3.56053 25.6367L5.88026 24.7196L8.73947 23.5867L9.3329 23.3709L8.2 20.7275L8.14605 20.6196L5.39474 21.6986L2.15789 22.9933C1.34868 23.317 0.809211 23.7486 0.485526 24.342C0.161842 24.8815 0 25.6367 0 26.4999C0 27.363 0.161842 28.1183 0.485526 28.7117C0.809211 29.3052 1.34868 29.7367 2.15789 30.0065L5.39474 31.3012L8.14605 32.3802L8.25395 32.4341L10.8974 33.4591L11.8145 31.3552L10.8974 33.4591L11.4908 33.6749C13.1632 34.3223 14.4579 35.617 15.1053 37.2894L15.3211 37.8828L18.0724 36.6959L17.8566 36.2104Z" fill="#66768F"/>
<path d="M39.0039 38.2604L37.6013 35.0775L36.4145 32.3802L36.3605 32.2723L35.2276 29.6288L34.0408 30.1144L35.2276 29.6288L34.9579 29.0894C34.2566 27.4709 34.2566 25.5828 34.9579 23.9644L35.2276 23.4249L32.4224 22.3459L32.2066 22.8315L31.721 24.0183C31.0197 25.6367 31.0197 27.5249 31.721 29.1433L32.2066 30.3302L32.4224 30.8157L33.6092 33.567L34.85 33.0815L33.6092 33.567L33.8789 34.1604L35.1197 36.9657L36.1447 39.2854C36.3066 39.6631 36.2526 39.9867 35.9289 40.2565C35.6592 40.5262 35.3355 40.5802 34.9579 40.4723L32.6382 39.4473L29.8329 38.2065L29.2395 37.9367L28.2145 40.5802L28.1605 40.6881L30.8579 41.8749L34.0408 43.2775C34.796 43.6012 35.5513 43.7091 36.1447 43.5473C36.7921 43.3854 37.3855 42.9538 38.0329 42.3604C38.6803 41.7131 39.0579 41.1196 39.2197 40.4723C39.4355 39.717 39.3276 39.0157 39.0039 38.2604Z" fill="#C9DAF5"/>
<path d="M27.0816 9.61446L25.7868 6.37762C25.4631 5.56841 25.0316 5.02894 24.4921 4.70525C23.8987 4.38157 23.1973 4.21973 22.2802 4.21973C21.4171 4.21973 20.6618 4.38157 20.0684 4.70525C19.475 5.02894 19.0434 5.56841 18.7737 6.37762L17.4789 9.61446L16.4 12.3658L16.5079 12.4197L18.2342 13.175L16.5079 12.4197L16.4 12.3658L16.346 12.4737L15.321 15.1171L15.1052 15.7105C14.4579 17.3829 13.1631 18.6776 11.4908 19.325L10.8973 19.5408L12.0842 22.2921L12.5697 22.0763L13.7565 21.5908C15.4289 20.9434 16.7237 19.6487 17.371 17.9763L17.8565 16.7895L18.0723 16.3039L17.3171 15.9803L18.0723 16.3039L19.1513 13.4987L19.3671 12.9053L20.5 10.046L21.4171 7.72631C21.5789 7.34867 21.8487 7.13288 22.2802 7.13288H22.3342C22.7118 7.13288 23.0355 7.34867 23.1973 7.72631L24.1144 10.046L25.2473 12.9053L25.4631 13.4987L28.1065 12.3658L28.2144 12.3118L27.0816 9.61446Z" fill="#66768F"/>
<path d="M39.2196 12.6354C39.0578 11.988 38.6262 11.3946 38.0328 10.7472C37.3854 10.0999 36.792 9.72223 36.1446 9.56039C35.4973 9.39855 34.7959 9.45249 34.0407 9.83013L30.8578 11.2328L28.1604 12.4196H28.0525L25.4091 13.5525L24.8157 13.7683C23.1973 14.4696 21.3091 14.4696 19.6907 13.7683L19.0973 13.4985L18.0183 16.3038L18.5038 16.5196L19.6907 17.0051C21.3091 17.7064 23.1973 17.7064 24.8157 17.0051L26.0025 16.5196L26.488 16.3038L26.2723 15.8183L26.488 16.3038L29.2394 15.117L28.2144 12.4735V12.4196V12.4735L29.2394 15.117L29.8328 14.8472L32.638 13.6064L34.9578 12.5814C35.3354 12.4196 35.6591 12.4735 35.9288 12.7972C36.1986 13.067 36.2525 13.3907 36.1446 13.7683L35.1196 16.088L33.8788 18.8933L33.6091 19.4867L36.2525 20.5117L36.3604 20.5657L37.5473 17.8683L38.9499 14.6854C39.3275 13.9841 39.4354 13.2828 39.2196 12.6354Z" fill="#C9DAF5"/>
<path d="M44.075 24.288C43.7513 23.6946 43.2118 23.263 42.4026 22.9393L39.1658 21.6446L36.4145 20.5656L36.3605 20.6196L36.4145 20.5656L36.3066 20.5117L33.6632 19.4867L33.0697 19.3248C31.3974 18.6775 30.1026 17.3827 29.4553 15.7104L29.2395 15.1169L26.4882 16.3038L26.7039 16.7893L27.1895 17.9762C27.8368 19.6485 29.1316 20.9433 30.8039 21.5906L31.9908 22.0762L32.4763 22.2919L35.2276 23.3709L35.9289 21.8064L35.2276 23.3709L35.8211 23.5867L38.6803 24.7196L41 25.6367C41.3776 25.7985 41.5934 26.0683 41.5934 26.4998C41.5934 26.8775 41.3776 27.1472 41 27.363L38.6803 28.2801L35.8211 29.413L35.2276 29.6288L36.3605 32.2722L36.4145 32.3801L39.1658 31.3012L42.4026 30.0064C43.2118 29.6827 43.7513 29.2512 44.075 28.7117C44.3987 28.1183 44.5605 27.4169 44.5605 26.4998C44.5605 25.6367 44.3987 24.8814 44.075 24.288Z" fill="#66768F"/>
<path d="M26.0026 36.4801L24.8157 35.9407C23.1973 35.2393 21.3091 35.2393 19.6907 35.9407L18.5039 36.4801L18.0184 36.6959L15.267 37.8828L14.6736 38.1525L11.8684 39.3933L9.65651 40.3643C9.27888 40.5262 8.95519 40.4722 8.68546 40.1485C8.41572 39.8788 8.36177 39.5551 8.46967 39.1775L9.49467 36.8578L10.7355 34.0525L11.0052 33.4591L8.36177 32.4341L8.25388 32.3801L7.06704 35.0775L5.6644 38.2604C5.34072 39.0157 5.23283 39.7709 5.39467 40.3643C5.55651 41.0117 5.98809 41.6051 6.58151 42.2525C7.22888 42.8999 7.8223 43.2775 8.46967 43.4393C9.11704 43.6012 9.81835 43.5472 10.5736 43.1696L13.7565 41.767L16.4539 40.5801L16.5618 40.5262L19.2052 39.3933L18.5578 37.7209L19.2052 39.3933L19.7447 39.1235C21.3631 38.4222 23.2512 38.4222 24.8697 39.1235L25.4631 39.3933L26.542 36.642L26.0026 36.4801Z" fill="#C9DAF5"/>
<path d="M13.7026 11.1789L10.5197 9.77622C9.76447 9.45254 9.00921 9.34464 8.41578 9.50648C7.76842 9.66833 7.17499 10.0999 6.52763 10.6933C5.88026 11.3407 5.50263 11.9341 5.34078 12.5815C5.17894 13.2289 5.23289 13.9302 5.61052 14.6854L7.01315 17.8683L8.19999 20.5657L8.25394 20.6736L9.38684 23.317L10.7355 22.7775L9.38684 23.317L9.65657 23.9104C10.3579 25.5289 10.3579 27.417 9.65657 29.0354L9.38684 29.5749L12.1382 30.6539L12.3539 30.1683L12.8395 28.9815C13.5408 27.3631 13.5408 25.4749 12.8395 23.8565L12.3 22.6696L12.0842 22.1841L10.8974 19.4328L10.6276 18.8394L9.38684 16.0341L8.36184 13.7144C8.19999 13.3367 8.25394 13.0131 8.57763 12.7433C8.84736 12.4736 9.17105 12.4196 9.54868 12.5275L11.8684 13.5525L14.6737 14.7933L15.2671 15.0631L16.2921 12.4196L16.346 12.3117L13.7026 11.1789Z" fill="#C9DAF5"/>
<path d="M32.4762 30.7078L31.9907 30.9236L30.8039 31.4091C29.1315 32.0564 27.8367 33.3512 27.1894 35.0236L26.7039 36.2104L26.4881 36.6959L25.4091 39.4472L25.1933 40.0407L24.0604 42.8999L23.1433 45.2196C22.9815 45.5972 22.7117 45.813 22.2802 45.813C21.9025 45.813 21.5789 45.5972 21.417 45.2196L20.4999 42.8999L19.367 40.0407L19.1512 39.4472L16.5078 40.5801L16.3999 40.6341L17.4789 43.3854L18.7736 46.6222C19.0973 47.4314 19.5289 47.9709 20.0683 48.2946C20.6617 48.6183 21.3631 48.7801 22.2802 48.7801C23.1433 48.7801 23.8986 48.6183 24.492 48.2946C25.0854 47.9709 25.517 47.4314 25.7867 46.6222L27.0815 43.3854L28.1604 40.6341H28.1065H28.1604L28.2144 40.5262L29.2394 37.8828L27.7828 37.2354L29.2394 37.8828L29.4552 37.2893C30.1025 35.617 31.3973 34.3222 33.0696 33.6749L33.6631 33.4591L32.4762 30.7078Z" fill="#66768F"/>
</g>
<path d="M55.3083 40V13.9757H70.331V17.0106H58.6466V25.4325H68.9653V28.4674H58.6466V40H55.3083ZM74.4036 40V20.0455H77.5143V40H74.4036ZM74.3277 16.176V12.572H77.5523V16.176H74.3277ZM85.6674 46.9044C84.0488 46.9044 82.8222 46.4365 81.9876 45.5008C81.153 44.5903 80.7357 43.4775 80.7357 42.1624C80.7357 41.2013 80.9633 40.3288 81.4185 39.5448C81.899 38.7607 82.5313 38.217 83.3153 37.9135C82.8095 37.5847 82.4049 37.1548 82.1014 36.6237C81.8232 36.0673 81.6841 35.4982 81.6841 34.9165C81.6841 34.1072 81.937 33.4117 82.4428 32.83C82.9739 32.2231 83.6568 31.7678 84.4914 31.4643C83.7832 30.8826 83.2142 30.1618 82.7842 29.302C82.3796 28.4168 82.1772 27.4178 82.1772 26.305C82.1772 24.2058 82.7589 22.5619 83.9223 21.3733C85.0857 20.1846 86.679 19.5903 88.7023 19.5903C89.7392 19.5903 90.7003 19.8305 91.5855 20.311C92.4706 19.8305 93.0776 19.2868 93.4064 18.6798C93.7352 18.0728 93.9502 17.4532 94.0513 16.8209H96.7827C96.7827 18.0096 96.4792 19.0339 95.8723 19.8937C95.2906 20.7536 94.4813 21.3227 93.4443 21.6009C94.0007 22.1573 94.4307 22.8401 94.7342 23.6494C95.063 24.4335 95.2273 25.3186 95.2273 26.305C95.2273 28.3788 94.6457 30.0101 93.4823 31.1988C92.3442 32.3874 90.8014 32.9944 88.854 33.0197H86.7675C86.2617 33.0197 85.8318 33.1968 85.4777 33.5508C85.1236 33.8796 84.9466 34.2969 84.9466 34.8027C84.9466 35.2832 85.1236 35.7005 85.4777 36.0546C85.8571 36.4087 86.287 36.5857 86.7675 36.5857H92.458C93.8996 36.5857 95.0377 37.0536 95.8723 37.9894C96.7322 38.8998 97.1621 39.9874 97.1621 41.2519C97.1621 42.2888 96.9345 43.2372 96.4792 44.0971C96.0493 44.957 95.3917 45.6399 94.5066 46.1457C93.6467 46.6515 92.5844 46.9044 91.3199 46.9044H85.6674ZM86.1606 44.2109H91.6613C92.3189 44.2109 92.8753 43.9707 93.3305 43.4901C93.7858 43.0349 94.0134 42.4912 94.0134 41.8589C94.0134 41.2013 93.8237 40.6449 93.4443 40.1897C93.065 39.7597 92.4706 39.5448 91.6613 39.5448H86.1606C85.3765 39.5448 84.7949 39.7597 84.4155 40.1897C84.0361 40.6449 83.8464 41.2013 83.8464 41.8589C83.8464 42.4912 84.0361 43.0349 84.4155 43.4901C84.7949 43.9707 85.3765 44.2109 86.1606 44.2109ZM88.6644 30.44C89.7772 30.44 90.6244 30.0733 91.2061 29.3399C91.7878 28.5812 92.0786 27.5695 92.0786 26.305C92.0786 24.9646 91.7878 23.9403 91.2061 23.2321C90.6244 22.524 89.7772 22.1699 88.6644 22.1699C87.5769 22.1699 86.7423 22.5493 86.1606 23.308C85.5789 24.0415 85.288 25.0404 85.288 26.305C85.288 27.6201 85.5789 28.6444 86.1606 29.3778C86.7423 30.086 87.5769 30.44 88.6644 30.44ZM102.527 40L97.5578 20.0455H100.972L103.476 31.2746C103.602 31.8058 103.729 32.4507 103.855 33.2094C103.982 33.9428 104.083 34.6004 104.159 35.1821C104.235 35.7385 104.272 36.0167 104.272 36.0167H104.424C104.424 36.0167 104.45 35.7638 104.5 35.258C104.551 34.7521 104.627 34.1325 104.728 33.3991C104.829 32.6656 104.93 31.9575 105.031 31.2746L107.042 20.0455H110.646L112.694 31.2746C112.77 31.7805 112.846 32.3116 112.922 32.868C112.998 33.3991 113.061 33.9049 113.112 34.3854C113.188 34.866 113.238 35.258 113.263 35.5614C113.289 35.8649 113.301 36.0167 113.301 36.0167H113.453C113.453 36.0167 113.466 35.8776 113.491 35.5994C113.542 35.3212 113.592 34.9545 113.643 34.4992C113.719 34.044 113.807 33.5382 113.908 32.9818C114.009 32.4001 114.123 31.831 114.25 31.2746L116.754 20.0455H119.902L114.933 40H111.48L109.394 28.6191C109.267 27.9362 109.154 27.2407 109.052 26.5326C108.977 25.8245 108.913 25.2301 108.863 24.7496C108.812 24.2691 108.787 24.0288 108.787 24.0288H108.635C108.635 24.0288 108.61 24.2691 108.559 24.7496C108.509 25.2301 108.433 25.8245 108.332 26.5326C108.256 27.2155 108.155 27.911 108.028 28.6191L105.98 40H102.527ZM122.716 40V20.0455H125.827V40H122.716ZM122.64 16.176V12.572H125.865V16.176H122.64ZM130.831 40V20.0455H133.183L133.601 22.6631H133.828C134.081 21.9044 134.473 21.2089 135.004 20.5766C135.535 19.919 136.269 19.5903 137.204 19.5903C137.634 19.5903 137.989 19.6408 138.267 19.742C138.545 19.8432 138.684 19.8937 138.684 19.8937V23.1183H137.66C137.002 23.1183 136.383 23.2701 135.801 23.5736C135.244 23.8518 134.789 24.3323 134.435 25.0152C134.106 25.698 133.942 26.6338 133.942 27.8224V40H130.831ZM148.047 40.4552C145.569 40.4552 143.684 39.6459 142.395 38.0273C141.13 36.3834 140.498 33.7152 140.498 30.0227C140.498 26.4314 141.117 23.8012 142.357 22.132C143.621 20.4375 145.505 19.5903 148.009 19.5903C150.184 19.5903 151.815 20.3237 152.903 21.7906C154.016 23.2321 154.572 25.6221 154.572 28.9605V30.9332H143.76C143.786 33.26 144.152 34.9671 144.861 36.0546C145.569 37.1421 146.656 37.6859 148.123 37.6859C149.109 37.6859 149.919 37.2939 150.551 36.5099C151.183 35.7005 151.499 34.6004 151.499 33.2094H154.572C154.572 35.435 153.965 37.2054 152.751 38.5205C151.563 39.8103 149.995 40.4552 148.047 40.4552ZM143.798 28.1639H151.31C151.31 26.267 151.031 24.8255 150.475 23.8391C149.919 22.8528 149.097 22.3596 148.009 22.3596C146.618 22.3596 145.594 22.8528 144.936 23.8391C144.304 24.8002 143.925 26.2418 143.798 28.1639Z" fill="#C9DAF5"/>
<defs>
<clipPath id="clip0_59_4526">
<rect width="44.5605" height="44.5605" fill="white" transform="translate(0 4.21973)"/>
</clipPath>
</defs>
</svg>
