<svg width="205" height="43" viewBox="0 0 205 43" fill="none" xmlns="http://www.w3.org/2000/svg">
<g clip-path="url(#clip0_59_4527)">
<path d="M30.966 21.3263C31.6673 21.1105 32.4765 21.1105 33.2318 21.3803C33.5015 21.4882 33.7713 21.5961 34.041 21.7579C34.3108 21.9197 34.5805 22.0276 34.7963 22.2434C35.3358 22.5671 35.7673 22.9987 36.1989 23.4303C37.0621 24.3474 37.8173 25.5342 38.2489 26.8829C38.6805 28.2316 38.8963 29.85 38.6805 31.4684C38.5186 33.1408 37.9792 34.8132 37.0621 36.4316C36.5226 37.4026 35.6055 38.1579 34.6884 38.5355C34.4726 38.6434 34.2029 38.6974 33.9871 38.7513C33.7713 38.8053 33.5015 38.8053 33.2858 38.8053C32.8542 38.8053 32.4226 38.6974 32.045 38.5355C31.3436 38.1579 31.02 37.5105 30.966 36.7553C30.9121 36.0539 31.1818 35.2447 31.6673 34.5434C32.2608 33.6263 32.6923 32.6553 32.9081 31.6842C33.1239 30.7132 33.1239 29.6882 32.9621 28.7711C32.9081 28.5553 32.8542 28.2855 32.8002 28.0697C32.7463 27.9618 32.7463 27.8539 32.6923 27.7461C32.6384 27.6382 32.6384 27.5303 32.5844 27.4224C32.4765 27.2066 32.4226 26.9908 32.3147 26.8289C32.2068 26.6132 32.0989 26.4513 31.991 26.2355C31.5055 25.4803 30.966 24.8868 30.2647 24.3474C29.7252 23.9158 29.3476 23.4303 29.2397 23.0526C29.0779 22.6211 29.1858 22.2974 29.5634 21.9197C29.7252 21.7579 29.941 21.65 30.1568 21.4882C30.4265 21.4882 30.6963 21.3803 30.966 21.3263Z" fill="#66768F"/>
<path d="M26.1645 29.3106C26.65 29.7961 27.1355 30.4974 27.2434 31.3066C27.2974 31.6303 27.2974 31.9 27.2974 32.1698C27.2974 32.4935 27.2974 32.7632 27.2974 33.0869C27.2974 33.4106 27.2434 33.6803 27.1895 34.004C27.1355 34.3277 27.0816 34.5974 26.9737 34.9211C26.5961 36.1619 25.9487 37.3487 24.9776 38.4277C24.0066 39.5066 22.7118 40.4237 21.2013 41.125C19.6908 41.7724 17.9105 42.204 16.0763 42.204C14.9974 42.204 13.8645 41.8263 13.0553 41.179C12.2461 40.5316 11.7605 39.7224 11.7066 38.9132C11.6526 38.104 12.0842 37.5106 12.6776 37.079C13.0013 36.8632 13.325 36.7553 13.7026 36.6474C14.0803 36.5395 14.5118 36.5395 14.9434 36.5395C16.0224 36.5935 17.1013 36.4856 18.0184 36.1619C18.5039 36 18.9355 35.7842 19.3671 35.5685C19.5829 35.4606 19.7987 35.2987 19.9605 35.1908C20.1763 35.0829 20.3382 34.9211 20.5 34.7592C20.8776 34.4895 21.2013 34.1119 21.4711 33.7882C21.6329 33.6264 21.7408 33.4106 21.8487 33.2487C21.9566 33.0869 22.0645 32.8711 22.1724 32.7092C22.6039 31.954 22.8197 31.0908 22.9816 30.2816C23.0355 29.904 23.0895 29.6342 23.1974 29.3645C23.2513 29.2566 23.3053 29.0948 23.3592 28.9869C23.4132 28.9329 23.4132 28.879 23.4671 28.825C23.5211 28.7711 23.5211 28.7171 23.575 28.7171C23.8447 28.3935 24.2224 28.2856 24.7079 28.4474C24.8158 28.5013 24.9237 28.5013 25.0316 28.5553C25.1395 28.6092 25.2474 28.6632 25.3553 28.7171C25.7329 28.9329 26.0026 29.0948 26.1645 29.3106Z" fill="#C9DAF5"/>
<path d="M16.8856 29.1487C16.7238 29.85 16.3462 30.5513 15.6988 31.0908C14.7817 31.7921 13.6488 32.3855 12.408 32.6553C11.1672 32.925 9.81854 32.979 8.36196 32.7092C6.95933 32.4395 5.50275 31.7921 4.15407 30.8211C2.85933 29.7961 1.61854 28.5013 0.647487 26.8829C0.108013 25.9119 -0.107777 24.779 0.000118215 23.754C0.000118215 23.6461 0.0540656 23.4842 0.0540656 23.3763C0.108013 23.2684 0.108013 23.1605 0.16196 22.9987C0.215908 22.7829 0.323802 22.5671 0.431697 22.3513C0.647487 21.9737 0.971171 21.65 1.29486 21.4342C1.99617 21.0026 2.69749 21.0566 3.34486 21.3803C3.66854 21.5421 3.99222 21.7579 4.20801 22.0816C4.36986 22.2434 4.47775 22.4053 4.58564 22.5671C4.69354 22.729 4.80143 22.9447 4.90933 23.1066C5.39486 24.0776 6.04222 24.9408 6.79749 25.5882C7.55275 26.2895 8.41591 26.775 9.27907 27.0987C9.71064 27.2605 10.1422 27.3684 10.6278 27.4224C11.0593 27.4763 11.5449 27.5303 11.9764 27.4763C12.408 27.4763 12.8396 27.4224 13.2712 27.3145C13.7028 27.2066 14.0804 27.0987 14.458 26.9369C14.7817 26.829 15.1054 26.7211 15.3751 26.6671C15.537 26.6671 15.6449 26.6132 15.7528 26.6671C15.8606 26.6671 15.9685 26.6671 16.0764 26.7211C16.508 26.829 16.7778 27.0447 16.8856 27.5303C17.0475 28.0158 17.0475 28.6092 16.8856 29.1487Z" fill="#66768F"/>
<path d="M12.3541 21.0026C11.6527 21.2184 10.8435 21.2184 10.0883 20.9487C9.81853 20.8408 9.5488 20.7329 9.27906 20.5711C9.00932 20.4092 8.73959 20.3013 8.5238 20.0855C7.98432 19.7618 7.55274 19.3303 7.12117 18.8987C6.25801 17.9816 5.50274 16.7947 5.07117 15.446C4.63959 14.0974 4.4238 12.4789 4.63959 10.8605C4.80143 9.18816 5.3409 7.51579 6.25801 5.89737C6.79748 4.92631 7.71459 4.17105 8.63169 3.79342C8.84748 3.68552 9.11722 3.63158 9.33301 3.57763C9.5488 3.52368 9.81853 3.52368 10.0343 3.52368C10.4659 3.52368 10.8975 3.63158 11.2751 3.79342C11.9764 4.17105 12.3001 4.81842 12.3541 5.57368C12.408 6.275 12.1383 7.08421 11.6527 7.78552C11.0593 8.70263 10.6277 9.67368 10.412 10.6447C10.1962 11.6158 10.1962 12.6408 10.358 13.5579C10.412 13.7737 10.4659 14.0434 10.5199 14.2592C10.5738 14.3671 10.5738 14.475 10.6277 14.5829C10.6817 14.6908 10.6817 14.7987 10.7356 14.9066C10.8435 15.1224 10.8975 15.3382 11.0054 15.5C11.1133 15.7158 11.2212 15.8776 11.3291 16.0934C11.8146 16.8487 12.3541 17.4421 13.0554 17.9816C13.5949 18.4132 13.9725 18.8987 14.0804 19.2763C14.2422 19.7079 14.1343 20.0316 13.7567 20.4092C13.5948 20.5711 13.3791 20.6789 13.1633 20.8408C12.8935 20.8408 12.6238 20.9487 12.3541 21.0026Z" fill="#C9DAF5"/>
<path d="M17.1552 13.0184C16.6697 12.5329 16.1842 11.8316 16.0763 11.0224C16.0223 10.6987 16.0223 10.4289 16.0223 10.1592C16.0223 9.83553 16.0223 9.56579 16.0223 9.24211C16.0223 8.91842 16.0763 8.64868 16.1302 8.325C16.1842 8.00132 16.2381 7.73158 16.346 7.4079C16.7237 6.16711 17.371 4.98026 18.3421 3.90132C19.3131 2.82237 20.6079 1.90526 22.1184 1.20395C23.6289 0.556579 25.4092 0.125 27.2434 0.125C28.3223 0.125 29.4552 0.502632 30.2644 1.15C31.0737 1.79737 31.5592 2.60658 31.6131 3.41579C31.6671 4.225 31.2355 4.81842 30.6421 5.25C30.3184 5.46579 29.9947 5.57368 29.6171 5.68158C29.2394 5.78947 28.8079 5.78947 28.3763 5.78947C27.2973 5.73553 26.2184 5.84342 25.3013 6.16711C24.8158 6.32895 24.3842 6.54474 23.9526 6.76053C23.7368 6.86842 23.521 7.03026 23.3592 7.13816C23.1434 7.24605 22.9815 7.4079 22.8197 7.56974C22.4421 7.83947 22.1184 8.21711 21.8487 8.54079C21.6868 8.70263 21.5789 8.91842 21.471 9.08026C21.3631 9.24211 21.2552 9.4579 21.1473 9.61974C20.7158 10.375 20.5 11.2382 20.3381 12.0474C20.2842 12.425 20.2302 12.6947 20.1223 12.9645C20.0684 13.0724 20.0144 13.2342 19.9605 13.3421C19.9065 13.3961 19.9065 13.45 19.8526 13.5039C19.7987 13.5579 19.7987 13.6118 19.7447 13.6118C19.475 13.9355 19.0973 14.0434 18.6118 13.8816C18.5039 13.8276 18.396 13.8276 18.2881 13.7737C18.1802 13.7197 18.0723 13.6658 17.9644 13.6118C17.5868 13.3961 17.371 13.2342 17.1552 13.0184Z" fill="#66768F"/>
<path d="M26.4343 13.1802C26.5961 12.4789 26.9738 11.7776 27.6211 11.2381C28.5382 10.5368 29.6711 9.94341 30.9119 9.67367C32.1527 9.40393 33.5014 9.34998 34.958 9.61972C36.3606 9.88946 37.8172 10.5368 39.1659 11.5079C40.5146 12.4789 41.7014 13.8276 42.6725 15.3921C43.2119 16.3631 43.4277 17.496 43.3198 18.521C43.3198 18.6289 43.2659 18.7908 43.2659 18.8987C43.2119 19.0066 43.2119 19.1145 43.158 19.2763C43.104 19.4921 42.9961 19.7079 42.8882 19.9237C42.6725 20.3013 42.3488 20.625 42.0251 20.8408C41.3238 21.2724 40.6225 21.2184 39.9751 20.8947C39.6514 20.7329 39.3277 20.5171 39.1119 20.1934C38.9501 20.0316 38.8422 19.8697 38.7343 19.7079C38.6264 19.546 38.5185 19.3302 38.4106 19.1684C37.9251 18.1974 37.2777 17.3342 36.5225 16.6868C35.7672 15.9855 34.904 15.5 34.0409 15.1763C33.6093 15.0145 33.1777 14.9066 32.6922 14.8526C32.2606 14.7987 31.829 14.7447 31.3435 14.7987C30.9119 14.7987 30.4804 14.8526 30.0488 14.9605C29.6172 15.0684 29.2396 15.1763 28.8619 15.3381C28.5382 15.446 28.2146 15.5539 27.9448 15.6079C27.783 15.6079 27.6751 15.6618 27.5672 15.6079C27.4593 15.6079 27.3514 15.6079 27.2435 15.5539C26.8119 15.446 26.5422 15.2302 26.4343 14.7447C26.2725 14.3131 26.3264 13.7737 26.4343 13.1802Z" fill="#C9DAF5"/>
</g>
<path d="M51.9207 9.84154H70.837V14.4509H63.893V31.6611H59.2537V14.4509H51.9207V9.84154ZM82.4033 23.4002C82.4033 22.8614 82.3335 22.4224 82.1938 22.0832C82.0741 21.744 81.9045 21.4746 81.685 21.2751C81.4655 21.0756 81.2161 20.9359 80.9367 20.8561C80.6773 20.7763 80.4179 20.7363 80.1585 20.7363H78.7518C78.5722 20.7363 78.3627 20.7663 78.1232 20.8261C77.8838 20.866 77.6543 20.9359 77.4348 21.0357C77.2353 21.1354 77.0657 21.2651 76.926 21.4248C76.7863 21.5844 76.7165 21.764 76.7165 21.9635V31.6611H72.6758V9.84154H76.7165V18.0725C77.0158 17.9129 77.375 17.7732 77.794 17.6535C78.233 17.5138 78.672 17.444 79.111 17.444H80.7272C81.3258 17.444 81.9145 17.5437 82.4931 17.7433C83.0917 17.9428 83.6305 18.2621 84.1094 18.7011C84.5883 19.1201 84.9774 19.6788 85.2767 20.3772C85.576 21.0556 85.7257 21.8837 85.7257 22.8614V31.6611H82.4033V23.4002ZM94.7933 17.414C95.4917 17.414 96.1601 17.5238 96.7987 17.7433C97.4372 17.9628 97.9959 18.272 98.4748 18.6711C98.9736 19.0702 99.3627 19.569 99.6421 20.1677C99.9414 20.7463 100.091 21.3948 100.091 22.1132V25.4953H91.2016V26.8722C91.2016 27.0517 91.2315 27.2712 91.2914 27.5306C91.3712 27.79 91.5009 28.0395 91.6805 28.2789C91.8601 28.4984 92.1095 28.688 92.4288 28.8476C92.748 29.0072 93.1571 29.087 93.6559 29.087H94.8232C96.2599 29.087 96.9782 28.4286 96.9782 27.1116H100.36V28.0095C100.36 28.7279 100.221 29.3265 99.9414 29.8054C99.662 30.2643 99.2929 30.6335 98.8339 30.9128C98.375 31.1922 97.8462 31.3817 97.2476 31.4815C96.649 31.6012 96.0304 31.6611 95.3919 31.6611H92.5185C92.0197 31.6611 91.5009 31.5913 90.9621 31.4516C90.4433 31.3119 89.9445 31.0725 89.4656 30.7332C89.0067 30.414 88.6076 29.985 88.2684 29.4462C87.9292 28.8875 87.6997 28.2091 87.58 27.4109V22.1132C87.58 21.4547 87.7296 20.8461 88.0289 20.2874C88.3282 19.7087 88.7273 19.2099 89.2262 18.7908C89.725 18.3519 90.3037 18.0126 90.9621 17.7732C91.6406 17.5338 92.3489 17.414 93.0872 17.414H94.7933ZM91.2016 23.2505H96.6789V22.3526C96.6789 22.0932 96.6091 21.8438 96.4694 21.6043C96.3497 21.3449 96.1801 21.1254 95.9606 20.9459C95.7411 20.7463 95.4917 20.5967 95.2123 20.4969C94.933 20.3772 94.6536 20.3173 94.3743 20.3173H93.4165C93.1371 20.3173 92.8578 20.3772 92.5784 20.4969C92.319 20.5967 92.0796 20.7463 91.8601 20.9459C91.6605 21.1254 91.5009 21.3449 91.3812 21.6043C91.2615 21.8438 91.2016 22.0932 91.2016 22.3526V23.2505ZM117.913 12.8346H108.365V18.8208H116.776V21.7241H108.365V31.6611H103.307V9.87147H117.913V12.8346ZM123.782 31.6611H119.861V9.84154H123.782V31.6611ZM131.072 31.6611C130.434 31.6611 129.815 31.5713 129.217 31.3917C128.638 31.2121 128.129 30.9328 127.69 30.5537C127.251 30.1945 126.902 29.7355 126.642 29.1768C126.383 28.5982 126.253 27.9197 126.253 27.1415V21.8139C126.253 21.1953 126.393 20.6166 126.672 20.0779C126.972 19.5391 127.361 19.0702 127.84 18.6711C128.339 18.272 128.917 17.9628 129.576 17.7433C130.234 17.5238 130.933 17.414 131.671 17.414H133.527C134.365 17.414 135.123 17.5338 135.801 17.7732C136.5 18.0126 137.098 18.3319 137.597 18.731C138.096 19.1301 138.475 19.609 138.735 20.1677C139.014 20.7264 139.154 21.315 139.154 21.9336V27.4408C139.154 28.0594 139.044 28.6281 138.824 29.1469C138.605 29.6657 138.286 30.1047 137.867 30.4639C137.447 30.843 136.949 31.1323 136.37 31.3319C135.791 31.5513 135.143 31.6611 134.424 31.6611H131.072ZM133.377 28.9374C133.716 28.9374 134.005 28.8775 134.245 28.7578C134.504 28.6181 134.714 28.4585 134.873 28.2789C135.053 28.0794 135.183 27.8699 135.263 27.6504C135.342 27.4109 135.382 27.1814 135.382 26.962V22.7118C135.382 22.2329 135.183 21.7739 134.784 21.335C134.405 20.876 133.866 20.6466 133.167 20.6466H132.329C132.05 20.6466 131.771 20.6865 131.491 20.7663C131.232 20.8461 130.982 20.9758 130.743 21.1554C130.523 21.315 130.344 21.5245 130.204 21.7839C130.065 22.0433 129.995 22.3626 129.995 22.7417V26.8123C129.995 26.9719 130.015 27.1814 130.055 27.4408C130.114 27.6803 130.214 27.9098 130.354 28.1293C130.514 28.3487 130.723 28.5383 130.982 28.6979C131.262 28.8576 131.611 28.9374 132.03 28.9374H133.377ZM157.038 17.444H162.576L157.158 31.6611H153.327L151.441 26.7225L149.556 31.6611H145.934L140.517 17.444H144.767C145.266 18.741 145.754 20.028 146.233 21.305C146.712 22.5621 147.211 23.8392 147.73 25.1362C147.75 25.0564 147.81 24.8868 147.909 24.6274C148.029 24.368 148.159 24.0587 148.299 23.6995C148.438 23.3204 148.588 22.9113 148.748 22.4723C148.927 22.0134 149.107 21.5545 149.286 21.0955L147.909 17.444H151.082C151.581 18.741 152.07 20.028 152.549 21.305C153.028 22.5621 153.526 23.8392 154.045 25.1362L157.038 17.444Z" fill="#C9DAF5"/>
<defs>
<clipPath id="clip0_59_4527">
<rect width="43.3197" height="42.0789" fill="white" transform="translate(0 0.125)"/>
</clipPath>
</defs>
</svg>
