<svg width="22" height="22" viewBox="0 0 22 22" fill="none" xmlns="http://www.w3.org/2000/svg">
<path d="M11.0002 6.03316C10.0391 6.03316 9.14004 6.28117 8.30299 6.7772C7.49694 7.24223 6.8459 7.89328 6.34987 8.73033C5.88484 9.53638 5.65232 10.4199 5.65232 11.381C5.65232 12.3421 5.88484 13.2411 6.34987 14.0782C6.8459 14.8842 7.49694 15.5353 8.30299 16.0313C9.14004 16.4963 10.0391 16.7288 11.0002 16.7288C11.9612 16.7288 12.8448 16.4963 13.6508 16.0313C14.4879 15.5353 15.1389 14.8842 15.604 14.0782C16.1 13.2411 16.348 12.3421 16.348 11.381C16.348 10.4199 16.1 9.53638 15.604 8.73033C15.1389 7.89328 14.4879 7.24223 13.6508 6.7772C12.8448 6.28117 11.9612 6.03316 11.0002 6.03316ZM11.0002 14.8687C10.0391 14.8687 9.21755 14.5277 8.53551 13.8457C7.85346 13.1636 7.51244 12.3421 7.51244 11.381C7.51244 10.4199 7.85346 9.59838 8.53551 8.91634C9.21755 8.2343 10.0391 7.89328 11.0002 7.89328C11.9612 7.89328 12.7828 8.2343 13.4648 8.91634C14.1469 9.59838 14.4879 10.4199 14.4879 11.381C14.4879 12.3421 14.1469 13.1636 13.4648 13.8457C12.7828 14.5277 11.9612 14.8687 11.0002 14.8687ZM17.8361 5.80064C17.8051 6.14166 17.6656 6.43618 17.4176 6.6842C17.2006 6.93221 16.9215 7.05622 16.5805 7.05622C16.2395 7.05622 15.945 6.93221 15.697 6.6842C15.4489 6.43618 15.3249 6.14166 15.3249 5.80064C15.3249 5.45962 15.4489 5.1651 15.697 4.91708C15.945 4.66907 16.2395 4.54506 16.5805 4.54506C16.9215 4.54506 17.2161 4.66907 17.4641 4.91708C17.7121 5.1651 17.8361 5.45962 17.8361 5.80064ZM21.3703 7.05622C21.3083 6.15716 21.1688 5.38211 20.9518 4.73107C20.6728 3.95602 20.2388 3.28948 19.6497 2.73144C19.0917 2.14241 18.4251 1.70838 17.6501 1.42936C16.999 1.21235 16.224 1.08834 15.3249 1.05734C14.4569 0.995334 13.0153 0.964332 11.0002 0.964332C8.98503 0.964332 7.52794 0.995334 6.62888 1.05734C5.76083 1.08834 5.00128 1.21235 4.35024 1.42936C3.57519 1.70838 2.89314 2.14241 2.30411 2.73144C1.74607 3.28948 1.32754 3.95602 1.04853 4.73107C0.831512 5.38211 0.692003 6.15716 0.629999 7.05622C0.598997 7.92428 0.583496 9.36587 0.583496 11.381C0.583496 13.3961 0.598997 14.8532 0.629999 15.7523C0.692003 16.6203 0.831512 17.3799 1.04853 18.0309C1.32754 18.806 1.74607 19.488 2.30411 20.0771C2.89314 20.6351 3.57519 21.0381 4.35024 21.2861C5.00128 21.5341 5.76083 21.6737 6.62888 21.7047C7.52794 21.7667 8.98503 21.7977 11.0002 21.7977C13.0153 21.7977 14.4569 21.7667 15.3249 21.7047C16.224 21.6737 16.999 21.5496 17.6501 21.3326C18.4251 21.0536 19.0917 20.6351 19.6497 20.0771C20.2388 19.488 20.6728 18.806 20.9518 18.0309C21.1688 17.3799 21.2928 16.6203 21.3238 15.7523C21.3858 14.8532 21.4168 13.3961 21.4168 11.381C21.4168 9.36587 21.4013 7.92428 21.3703 7.05622ZM19.1382 17.5194C18.7662 18.4495 18.0996 19.116 17.1386 19.519C16.6425 19.705 15.8055 19.829 14.6274 19.891C13.9764 19.922 13.0153 19.9375 11.7442 19.9375H10.2561C9.01604 19.9375 8.05497 19.922 7.37293 19.891C6.22586 19.829 5.3888 19.705 4.86177 19.519C3.93171 19.147 3.26517 18.4805 2.86214 17.5194C2.67613 16.9924 2.55212 16.1553 2.49012 15.0082C2.45912 14.3262 2.44362 13.3651 2.44362 12.125V10.637C2.44362 9.39687 2.45912 8.43581 2.49012 7.75377C2.55212 6.57569 2.67613 5.73864 2.86214 5.24261C3.23417 4.28154 3.90071 3.615 4.86177 3.24298C5.3888 3.05697 6.22586 2.93296 7.37293 2.87095C8.05497 2.83995 9.01604 2.82445 10.2561 2.82445H11.7442C12.9843 2.82445 13.9454 2.83995 14.6274 2.87095C15.8055 2.93296 16.6425 3.05697 17.1386 3.24298C18.0996 3.615 18.7662 4.28154 19.1382 5.24261C19.3242 5.73864 19.4482 6.57569 19.5102 7.75377C19.5412 8.40481 19.5567 9.36587 19.5567 10.637V12.125C19.5567 13.3651 19.5412 14.3262 19.5102 15.0082C19.4482 16.1553 19.3242 16.9924 19.1382 17.5194Z" fill="white"/>
</svg>
