<svg width="205" height="53" viewBox="0 0 205 53" fill="none" xmlns="http://www.w3.org/2000/svg">
<g clip-path="url(#clip0_59_4525)">
<path d="M29.4013 11.3678L28.7539 9.64145C28.7539 9.64145 28.4842 8.83224 28.3223 8.61645C28.2684 8.50855 28.1066 8.34671 27.9987 8.18487C27.3513 7.5375 26.3802 7.21382 25.571 7.48355C25.0316 7.64539 24.546 7.86118 24.546 7.86118L22.8197 8.61645C22.2802 8.88618 21.6868 9.04803 21.0934 9.15592C19.8526 9.42566 18.6118 9.42566 17.425 9.15592C16.8316 9.04803 16.2381 8.83224 15.6987 8.61645L14.0802 7.91513C14.0802 7.91513 13.1631 7.48355 12.8394 7.37566C12.0302 7.15987 11.1671 7.48355 10.5197 8.13092C10.4118 8.23882 10.25 8.45461 10.196 8.61645C10.0342 8.88618 9.8184 9.64145 9.8184 9.64145L9.17103 11.3678C8.95524 11.9612 8.6855 12.4467 8.36182 12.9862C8.84734 12.8783 9.38682 12.9322 9.92629 13.202L12.4618 14.3349L14.6197 15.252L14.7276 15.3059L17.2631 16.3849C18.5579 16.9243 20.0144 16.9243 21.3092 16.3849L23.8987 15.252L24.0066 15.198L26.1644 14.2809L28.7 13.148C29.2934 12.8783 29.7789 12.8243 30.2644 12.9322C29.8868 12.4467 29.6171 11.9072 29.4013 11.3678Z" fill="#C9DAF5"/>
<path d="M34.4184 36.6152L36.1447 35.9678L37.1697 35.5362C37.3316 35.4283 37.4395 35.3204 37.5474 35.2125C38.1947 34.5652 38.4645 33.6481 38.2487 32.7849L37.8171 31.8138L37.0618 30.0875C36.7921 29.5481 36.6302 28.9546 36.5224 28.3612C36.2526 27.1204 36.2526 25.8796 36.5224 24.6928C36.6302 24.0994 36.846 23.5059 37.0618 22.9665L37.7631 21.3481L38.3026 20.1073C38.4105 19.2981 38.1947 18.4349 37.5474 17.7875C37.4395 17.6796 37.3316 17.5717 37.2237 17.5178L36.0368 17.0323L34.4184 16.3849C33.825 16.1691 33.3395 15.8994 32.8 15.5757C32.9079 16.0612 32.8539 16.6007 32.5842 17.1402L31.4513 19.6757L30.5342 21.8336L30.4802 21.9415L29.3474 24.5309C28.8079 25.8257 28.8079 27.2823 29.3474 28.577L30.4802 31.1665L30.5342 31.2744L31.4513 33.4323L32.5842 35.9678C32.8539 36.5612 32.9079 37.0467 32.8 37.5323C33.3395 37.1546 33.8789 36.8849 34.4184 36.6152Z" fill="#C9DAF5"/>
<path d="M9.11707 41.6864L9.76444 43.4127C9.76444 43.4127 10.0342 44.2219 10.196 44.4377C10.25 44.5456 10.4118 44.7074 10.5197 44.8693C11.1671 45.5166 12.1381 45.8403 12.9473 45.5706C13.4868 45.4087 13.9723 45.1929 13.9723 45.1929L15.6987 44.4377C16.2381 44.1679 16.8315 44.0061 17.425 43.8982C18.6658 43.6285 19.9065 43.6285 21.0934 43.8982C21.6868 44.0061 22.2802 44.2219 22.8197 44.4377L24.4381 45.139C24.4381 45.139 25.3552 45.5706 25.6789 45.6785C26.4881 45.8943 27.3513 45.5706 27.9987 44.9232C28.1065 44.8153 28.2684 44.5995 28.3223 44.4377C28.4842 44.1679 28.7 43.4127 28.7 43.4127L29.3473 41.7403C29.5631 41.1469 29.8329 40.6614 30.1565 40.1219C29.671 40.2298 29.1315 40.1758 28.5921 39.9061L26.0565 38.7732L23.8987 37.8561L23.7908 37.8021L21.2013 36.6693C19.9065 36.1298 18.45 36.1298 17.1552 36.6693L14.5658 37.8021L12.4079 38.7193L9.87233 39.8521C9.27891 40.1219 8.79339 40.1758 8.30786 40.0679C8.63155 40.5535 8.90128 41.0929 9.11707 41.6864Z" fill="#C9DAF5"/>
<path d="M4.10004 16.3849L2.37372 17.0323L1.34872 17.4638C1.18688 17.5717 1.07898 17.6796 0.971088 17.7875C0.32372 18.4349 0.0539828 19.352 0.269772 20.2152L0.701351 21.1862L1.45661 22.9125C1.72635 23.452 1.88819 24.0454 1.99609 24.6388C2.26583 25.8796 2.26583 27.1204 1.99609 28.3073C1.88819 28.9007 1.6724 29.4941 1.45661 30.0336L0.755299 31.652L0.215825 32.8928C0.10793 33.702 0.32372 34.5652 0.971088 35.2125C1.07898 35.3204 1.18688 35.4283 1.29477 35.4823L2.48161 35.9678L4.15398 36.6152C4.7474 36.8309 5.23293 37.1007 5.7724 37.4244C5.66451 36.9388 5.71846 36.3994 5.98819 35.8599L7.12109 33.3244L8.03819 31.1665L8.09214 31.0586L9.22504 28.4691C9.76451 27.1744 9.76451 25.7178 9.22504 24.4231L8.09214 21.8336L8.03819 21.7257L7.12109 19.5678L5.93425 17.1402C5.66451 16.5467 5.61056 16.0612 5.71846 15.5757C5.23293 15.8454 4.69346 16.1691 4.10004 16.3849Z" fill="#C9DAF5"/>
<path d="M15.6987 8.4549L14.0263 7.69964C14.0263 7.69964 13.2711 7.32201 13.0013 7.26806C12.8395 7.21411 12.6237 7.21411 12.4618 7.21411C11.4908 7.21411 10.6276 7.69964 10.25 8.4549C9.98026 8.94043 9.81842 9.42595 9.81842 9.42595L9.11711 11.1523C8.90132 11.7457 8.63158 12.2852 8.30789 12.7707C7.60658 13.8496 6.74342 14.7128 5.66447 15.4141C5.17895 15.7378 4.63947 16.0075 4.04605 16.2773L2.42763 16.9246C2.42763 16.9246 1.45658 17.2483 1.18684 17.4102C0.377632 17.8417 0 18.7049 0 19.622C0 19.7838 0.0539474 20.0536 0.107895 20.2154C0.161842 20.4852 0.539474 21.2404 0.539474 21.2404L1.29474 22.9128C1.51053 23.3444 1.67237 23.8299 1.78026 24.3154C1.83421 24.4233 1.99605 24.4773 2.05 24.3694C2.31974 24.0996 2.64342 23.8299 3.12895 23.6681L5.71842 22.6431L7.93026 21.7799L8.03816 21.726L10.6816 20.701C11.9763 20.1615 13.0553 19.1365 13.5408 17.8417L14.5658 15.1983L14.6197 15.0904L15.4829 12.8786L16.5079 10.2891C16.6697 9.85753 16.9395 9.4799 17.2092 9.21016C17.3171 9.10227 17.2632 8.94043 17.1553 8.94043C16.6158 8.83253 16.1842 8.67069 15.6987 8.4549Z" fill="#66768F"/>
<path d="M37.3317 22.9128L38.0869 21.1865L38.5185 20.1615C38.5725 19.9996 38.5725 19.8378 38.5725 19.622C38.5725 18.651 38.0869 17.8417 37.3317 17.3562L36.3067 16.9786L34.5804 16.2773C33.9869 16.0615 33.4475 15.7917 32.9619 15.4681C31.883 14.7667 31.0198 13.9036 30.3185 12.8246C29.9948 12.3391 29.7251 11.7996 29.4554 11.2062L28.808 9.5878L28.3225 8.34701V8.29306C27.8369 7.64569 27.0277 7.21411 26.1646 7.21411C26.0027 7.21411 25.8409 7.21411 25.733 7.26806L24.5462 7.75359L22.8738 8.50885C22.4422 8.72464 21.9567 8.88648 21.4712 8.99437C21.3633 9.04832 21.3093 9.21016 21.4172 9.26411C21.6869 9.53385 21.9567 9.85753 22.1185 10.3431L23.1435 12.9325L24.0067 15.1444L24.0606 15.2523L25.0856 17.8957C25.6251 19.1904 26.6501 20.2694 27.9448 20.7549L30.5883 21.7799L30.6962 21.8338L32.908 22.697L35.4975 23.722C35.9291 23.8839 36.3067 24.1536 36.5764 24.4233C36.6843 24.5312 36.8462 24.4773 36.8462 24.3694C36.9541 23.8299 37.1159 23.3983 37.3317 22.9128Z" fill="#66768F"/>
<path d="M22.8738 44.5458L24.6001 45.3011C24.6001 45.3011 25.3554 45.6787 25.6251 45.7326C25.733 45.7866 26.0027 45.7866 26.1646 45.7866C27.1356 45.7866 27.9988 45.3011 28.3764 44.5458C28.6462 44.0603 28.808 43.5747 28.808 43.5747L29.5093 41.8484C29.7251 41.255 29.9948 40.7155 30.3185 40.23C31.0198 39.1511 31.883 38.2879 32.9619 37.5866C33.4475 37.2629 33.9869 36.9932 34.5804 36.7234L36.1988 36.0761C36.1988 36.0761 37.1698 35.7524 37.4396 35.5905C38.1948 35.2129 38.5725 34.2958 38.5725 33.4326C38.5725 33.2708 38.5185 33.0011 38.4646 32.8392C38.3567 32.5155 37.9791 31.8142 37.9791 31.8142L37.2238 30.1419C37.008 29.7103 36.8462 29.2248 36.7383 28.7392C36.6843 28.6313 36.5225 28.5774 36.4685 28.6853C36.1988 28.955 35.8751 29.2247 35.3896 29.3866L32.8001 30.4116L30.5883 31.2747L30.4804 31.3287L27.8369 32.3537C26.5422 32.8932 25.4633 33.9182 24.9777 35.2129L23.9527 37.8563L23.8988 37.9642L23.1435 40.1221L22.1185 42.7116C21.9567 43.1432 21.6869 43.5208 21.4172 43.7905C21.3093 43.8984 21.3633 44.0603 21.4712 44.0603C21.9567 44.1682 22.4422 44.33 22.8738 44.5458Z" fill="#66768F"/>
<path d="M1.24079 30.0879L0.485526 31.8142L0.0539474 32.8392C0 33.0011 0 33.1629 0 33.3787C0 34.3497 0.485526 35.159 1.24079 35.6445L2.26579 36.0221L3.99211 36.7234C4.58553 36.9392 5.125 37.209 5.61053 37.5326C6.68947 38.234 7.55263 39.0971 8.25395 40.1761C8.57763 40.6616 8.84737 41.2011 9.11711 41.7945L9.76447 43.4129L10.25 44.6537V44.7076C10.7355 45.355 11.5447 45.7866 12.4079 45.7866C12.5697 45.7866 12.7316 45.7866 12.8395 45.7326L14.0263 45.2471L15.6987 44.4918C16.1303 44.2761 16.6158 44.1142 17.1013 44.0063C17.2092 43.9524 17.2632 43.7905 17.1553 43.7366C16.8855 43.4668 16.6158 43.1432 16.4539 42.6576L15.4289 40.0682L14.5658 37.8563L14.5118 37.7484L13.4868 35.159C12.9474 33.8642 11.9224 32.7853 10.6276 32.2997L7.98421 31.2747L7.87632 31.2208L5.66447 30.3576L3.075 29.3326C2.64342 29.1708 2.26579 28.9011 1.99605 28.6313C1.88816 28.5234 1.72632 28.5774 1.72632 28.6853C1.61842 29.1708 1.45658 29.6563 1.24079 30.0879Z" fill="#66768F"/>
</g>
<path d="M58.9937 16.2003C58.9937 17.7936 59.9801 21.6631 61.9528 27.8088L63.1667 31.6024L63.4323 31.5265C63.4576 30.9954 65.0256 25.7855 68.1364 15.8968C68.1364 15.6439 67.9973 15.4036 67.7191 15.176C67.4409 14.9231 67.15 14.7587 66.8466 14.6828L66.9604 14.1517C68.2249 14.2529 69.9573 14.3035 72.1576 14.3035C74.3579 14.3035 76.1157 14.2023 77.4308 14L77.6205 14.9484C76.4065 15.3277 75.1799 15.5933 73.9406 15.745C73.8142 16.352 73.751 17.4395 73.751 19.0076C73.751 20.5503 73.9533 23.6611 74.3579 28.3399C74.7879 33.0187 75.1799 36.1295 75.534 37.6722C76.8744 37.7987 78.2654 38.0389 79.707 38.393L79.5932 39.3035C77.7216 39.1012 75.6984 39 73.5233 39C71.3483 39 69.5906 39.1012 68.2502 39.3035L68.0985 38.3551C69.2365 38.001 70.4505 37.7355 71.7403 37.5584C71.7403 35.1558 71.6012 31.8427 71.323 27.6191C71.0448 23.3955 70.6908 19.7789 70.2608 16.7693L70.147 16.7314C66.5304 26.7466 64.6336 32.8417 64.4566 35.0167C62.8127 36.003 61.5861 36.9641 60.7767 37.8998L60.3215 37.5964C60.3721 37.04 60.3974 36.6227 60.3974 36.3445C60.3974 33.3854 58.7408 26.8477 55.4277 16.7314L55.276 16.7693L54.0999 25.0774C53.5941 28.694 53.3412 31.9565 53.3412 34.8649C53.3412 35.8007 53.4424 36.5721 53.6447 37.1791C53.8723 37.786 54.3149 38.2666 54.9725 38.6206L54.8207 39.1517C54.0367 39.0506 52.6963 39 50.7995 39C48.928 39 47.2461 39.1012 45.754 39.3035L45.6022 38.3551C46.7403 38.001 47.9543 37.7355 49.2441 37.5584L53.493 16.3899C50.5086 16.3899 48.5992 16.7946 47.7646 17.6039C47.5875 17.958 47.499 18.5144 47.499 19.2731C47.499 20.0318 47.6255 20.5503 47.8784 20.8285L47.8405 21.0941C47.2082 21.4734 46.5759 22.0045 45.9436 22.6874C45.6401 22.6621 45.3999 22.5356 45.2228 22.308C45.0205 22.0804 44.9194 21.8148 44.9194 21.5114C44.9194 20.2721 45.6654 18.7926 47.1576 17.0728C48.6498 15.353 50.0408 14.2655 51.3306 13.8103C51.5329 13.8103 52.4434 13.8988 54.062 14.0758C55.6806 14.2276 56.9325 14.3035 57.8177 14.3035C58.7282 14.3035 59.5881 14.2276 60.3974 14.0758L60.5491 15.0242C59.5122 15.4289 58.9937 15.8209 58.9937 16.2003ZM89.4047 39.4552C86.9009 39.4552 84.8777 38.6712 83.3349 37.1032C81.7922 35.5099 81.0208 33.3854 81.0208 30.7299C81.0208 28.0743 81.8301 25.5832 83.4487 23.2564C85.0674 20.9297 87.1791 19.4375 89.7841 18.7799C92.3891 18.7799 94.3744 19.526 95.7401 21.0182C97.1058 22.4851 97.7887 24.5842 97.7887 27.3156C97.7887 30.047 97.0426 32.5129 95.5504 34.7132C94.0836 36.9135 92.035 38.4942 89.4047 39.4552ZM88.7598 21.0941C87.6217 21.0941 86.6354 21.4102 85.8008 22.0425C84.7639 23.8128 84.2454 26.0384 84.2454 28.7193C84.2454 31.8047 85.1053 34.1694 86.8251 35.8133C87.7355 36.6985 88.8104 37.1411 90.0497 37.1411C91.2889 37.1411 92.2879 36.8123 93.0466 36.1548C94.0583 34.3844 94.5641 32.222 94.5641 29.6677C94.5641 27.1133 94.1088 25.0521 93.1984 23.484C92.2879 21.8907 90.8084 21.0941 88.7598 21.0941ZM110.146 39.2656C108.831 39.0885 107.351 39 105.708 39C104.089 39 102.635 39.1012 101.345 39.3035L101.193 38.3171C102.002 38.0642 102.761 37.8746 103.469 37.7481C103.697 35.7754 103.811 33.1957 103.811 30.0091V28.2261C103.811 24.8371 103.684 22.2321 103.431 20.4112C102.749 20.3353 101.927 20.133 100.966 19.8042L101.079 18.8179C102.521 19.0961 104.026 19.2352 105.594 19.2352C107.187 19.2352 108.325 19.1467 109.008 18.9696L109.084 19.6145C108.401 19.7916 108.06 20.0824 108.06 20.4871C108.06 20.7906 108.35 21.4355 108.932 22.4218C109.539 23.3829 110.121 24.3186 110.677 25.2291C112.346 27.8847 114.319 31.1472 116.595 35.0167L116.709 34.9408V30.3126C116.709 26.9236 116.532 24.3819 116.178 22.6874C115.824 20.9676 115.217 19.9686 114.357 19.6904L114.433 19.0455C115.09 19.1719 116.077 19.2352 117.392 19.2352C118.707 19.2352 120.06 19.0961 121.451 18.8179L121.565 19.8042C120.528 20.133 119.656 20.3353 118.947 20.4112C118.694 22.4345 118.568 25.0394 118.568 28.2261V30.0091C118.568 33.8533 118.694 36.4583 118.947 37.824C120.01 38.001 120.857 38.2033 121.489 38.431L121.375 39.4173C120.111 39.1391 118.922 39 117.809 39C116.696 39 115.837 39.0506 115.23 39.1517C115.23 38.5953 114.838 37.6596 114.054 36.3445C113.295 35.0293 112.599 33.866 111.967 32.8543C109.919 29.5412 107.908 26.1775 105.935 22.7633L105.783 22.8391V27.9226C105.783 32.9555 106.163 36.2306 106.922 37.7481C108.06 37.8746 109.172 38.0642 110.26 38.3171L110.146 39.2656ZM127.196 36.1168C128.359 36.5974 129.51 36.8376 130.648 36.8376C131.786 36.8376 132.696 36.5721 133.379 36.041C134.062 35.5099 134.403 34.7511 134.403 33.7648C134.403 32.7532 132.975 31.5013 130.117 30.0091C129.029 29.4527 128.03 28.7825 127.12 27.9985C126.234 27.1892 125.792 26.3925 125.792 25.6085C125.792 24.2681 126.5 22.915 127.916 21.5493C129.333 20.1836 130.787 19.2605 132.279 18.7799C134.151 18.7799 135.845 18.9696 137.362 19.349V20.0318C136.3 21.0941 135.706 22.5483 135.579 24.3945H134.631C134.631 23.6864 134.568 22.8012 134.441 21.739C133.556 21.3343 132.608 21.132 131.596 21.132C130.585 21.132 129.737 21.3596 129.054 21.8148C128.397 22.2448 128.068 22.8771 128.068 23.7117C128.068 24.2934 128.511 24.9256 129.396 25.6085C130.306 26.2913 131.293 26.8983 132.355 27.4294C133.417 27.9605 134.391 28.6181 135.276 29.4021C136.186 30.1861 136.642 30.9701 136.642 31.7542C136.642 33.2716 135.971 34.7891 134.631 36.3065C133.291 37.7987 131.811 38.8483 130.193 39.4552C128.599 39.4552 127.107 39.2656 125.716 38.8862C125.311 39.0632 124.894 39.3541 124.464 39.7587L123.781 39.2656C125.198 37.7228 125.982 35.8133 126.133 33.5372H127.082C127.082 34.4223 127.12 35.2822 127.196 36.1168ZM152.965 21.2837C152.079 20.8538 151.232 20.6388 150.423 20.6388C149.614 20.6388 149.07 20.6894 148.792 20.7906C148.589 22.1563 148.488 24.7992 148.488 28.7193C148.488 32.6393 148.627 35.649 148.905 37.7481C150.044 37.8746 151.093 38.0642 152.054 38.3171L151.94 39.2656C150.625 39.0885 149.108 39 147.388 39C145.694 39 144.201 39.1012 142.912 39.3035L142.76 38.3171C143.266 38.1654 144.138 37.9757 145.377 37.7481C145.605 35.9272 145.719 33.3475 145.719 30.0091V28.2261C145.719 26.4557 145.58 23.9772 145.302 20.7906C145.023 20.6894 144.505 20.6388 143.746 20.6388C142.987 20.6388 142.178 20.8159 141.318 21.1699C141.065 21.9539 140.888 23.0035 140.787 24.3186H139.801C139.801 22.2448 139.459 20.6388 138.776 19.5007L138.966 18.8558C140.914 19.1087 143.645 19.2352 147.16 19.2352C150.676 19.2352 153.508 19.0961 155.658 18.8179L155.886 19.5387C155.254 20.2468 154.824 20.9423 154.596 21.6252C154.368 22.2827 154.229 23.1806 154.179 24.3186H153.23C153.053 23.484 152.965 22.4724 152.965 21.2837Z" fill="#C9DAF5"/>
<defs>
<clipPath id="clip0_59_4525">
<rect width="38.5724" height="38.5724" fill="white" transform="translate(0 7.21387)"/>
</clipPath>
</defs>
</svg>
