<svg width="24" height="23" viewBox="0 0 24 23" fill="none" xmlns="http://www.w3.org/2000/svg">
<path d="M23.8582 17.752C23.6102 18.31 22.5562 18.7285 20.696 19.0075C20.665 19.0696 20.6185 19.2556 20.5565 19.5656L20.417 20.1236C20.324 20.4026 20.138 20.5421 19.859 20.5421C19.735 20.5421 19.5335 20.5111 19.2544 20.4491C18.7894 20.3561 18.3864 20.3096 18.0454 20.3096C17.4563 20.3096 16.9758 20.3871 16.6038 20.5421C16.3558 20.6662 15.9527 20.9142 15.3947 21.2862C14.7747 21.7202 14.2631 22.0302 13.8601 22.2163C13.2711 22.4643 12.6355 22.5728 11.9535 22.5418C11.3334 22.6038 10.6979 22.4798 10.0469 22.1698C9.64383 21.9837 9.1788 21.7047 8.65176 21.3327L8.60526 21.2862C8.04722 20.9142 7.6442 20.6662 7.39618 20.5421C7.02416 20.3871 6.54363 20.3096 5.95459 20.3096C5.61357 20.3096 5.19504 20.3716 4.69901 20.4956C4.45099 20.5266 4.26498 20.5421 4.14097 20.5421C3.86196 20.5421 3.67594 20.4026 3.58294 20.1236L3.44343 19.6121C3.38143 19.2711 3.33492 19.0696 3.30392 19.0075C1.19579 18.6975 0.126217 18.2015 0.0952148 17.5195C0.0952148 17.3954 0.126217 17.2869 0.188221 17.1939C0.281227 17.0699 0.389734 17.0079 0.513742 17.0079C1.87783 16.7909 3.07141 16.0779 4.09447 14.8688C4.6215 14.2487 5.00903 13.6287 5.25705 13.0087V12.9622C5.44306 12.6211 5.48956 12.3421 5.39655 12.1251C5.30355 11.9081 5.11754 11.7376 4.83852 11.6136C4.65251 11.5206 4.38899 11.4121 4.04797 11.2881L3.72245 11.195C2.82339 10.823 2.42036 10.389 2.51337 9.89296C2.57537 9.61395 2.77689 9.39693 3.11791 9.24192C3.48993 9.08691 3.79995 9.07141 4.04797 9.19542C4.482 9.38143 4.85402 9.47444 5.16404 9.47444C5.35005 9.47444 5.50506 9.44344 5.62907 9.38143L5.58257 8.8234C5.52056 7.67632 5.48956 6.80827 5.48956 6.21923C5.52056 5.25817 5.64457 4.51412 5.86158 3.98709C6.54363 2.46799 7.5977 1.39842 9.02379 0.778381C9.89184 0.375355 10.8064 0.173842 11.7675 0.173842H12.2325C13.5036 0.173842 14.6506 0.499363 15.6737 1.1504C16.7588 1.80145 17.5803 2.74701 18.1384 3.98709C18.3554 4.51412 18.4794 5.25817 18.5104 6.21923C18.5104 6.80827 18.4794 7.66082 18.4174 8.77689L18.3709 9.38143C18.4949 9.44344 18.6344 9.47444 18.7894 9.47444C19.0994 9.47444 19.4405 9.38143 19.8125 9.19542C20.1225 9.04041 20.448 9.04041 20.789 9.19542C21.2541 9.35043 21.4866 9.62945 21.4866 10.0325C21.4866 10.4665 21.0836 10.854 20.2775 11.195L19.952 11.2881C19.1769 11.5361 18.7274 11.8151 18.6034 12.1251C18.5104 12.3421 18.5569 12.6211 18.7429 12.9622V13.0087C18.9909 13.6287 19.3784 14.2487 19.9055 14.8688C20.9285 16.0779 22.1221 16.7909 23.4862 17.0079C23.6412 17.0389 23.7497 17.1319 23.8117 17.2869C23.9047 17.4109 23.9202 17.566 23.8582 17.752Z" fill="white"/>
</svg>
