<svg width="24" height="21" viewBox="0 0 24 21" fill="none" xmlns="http://www.w3.org/2000/svg">
<path d="M21.4401 5.54464C21.4711 5.66865 21.4866 5.87016 21.4866 6.14918C21.4866 8.38132 20.944 10.536 19.859 12.6131C18.7429 14.8142 17.1773 16.5658 15.1622 17.8679C12.961 19.325 10.4344 20.0536 7.58219 20.0536C4.85402 20.0536 2.35836 19.325 0.0952148 17.8679C0.436237 17.8989 0.823761 17.9144 1.25779 17.9144C3.52093 17.9144 5.55156 17.2169 7.34968 15.8218C6.26461 15.8218 5.30355 15.5118 4.46649 14.8917C3.66044 14.2407 3.10241 13.4346 2.79239 12.4736C3.10241 12.5046 3.39693 12.5201 3.67594 12.5201C4.10997 12.5201 4.544 12.4736 4.97803 12.3806C3.86196 12.1326 2.9319 11.559 2.18785 10.66C1.4438 9.76091 1.07178 8.73785 1.07178 7.59077V7.49777C1.75382 7.90079 2.48237 8.11781 3.25742 8.14881C2.60638 7.68378 2.07934 7.09474 1.67632 6.3817C1.27329 5.66865 1.07178 4.8936 1.07178 4.05655C1.07178 3.18849 1.30429 2.36694 1.76932 1.59189C2.9784 3.11099 4.45099 4.32006 6.1871 5.21912C7.95422 6.11818 9.82984 6.61421 11.814 6.70722C11.752 6.33519 11.721 5.96317 11.721 5.59115C11.721 4.72309 11.938 3.91704 12.372 3.17299C12.806 2.39794 13.3951 1.7934 14.1391 1.35938C14.8832 0.925347 15.6892 0.708333 16.5573 0.708333C17.2703 0.708333 17.9214 0.847842 18.5104 1.12686C19.1304 1.40588 19.673 1.7779 20.138 2.24293C21.2541 2.02592 22.2926 1.63839 23.2537 1.08036C22.8817 2.22743 22.1686 3.12649 21.1146 3.77753C22.0446 3.65352 22.9747 3.39001 23.9047 2.98698C23.2227 3.97904 22.4011 4.8316 21.4401 5.54464Z" fill="white"/>
</svg>
