<svg width="32" height="32" viewBox="0 0 32 32" fill="none" xmlns="http://www.w3.org/2000/svg">
<path opacity="0.3" d="M6.6665 20C5.60564 20 4.58822 19.5786 3.83808 18.8284C3.08793 18.0783 2.6665 17.0609 2.6665 16C2.6665 14.9391 3.08793 13.9217 3.83808 13.1716C4.58822 12.4214 5.60564 12 6.6665 12H6.79984C6.71538 11.5605 6.67075 11.1142 6.6665 10.6667C6.67738 9.20566 7.1679 7.78869 8.06264 6.63366C8.95737 5.47863 10.2068 4.64951 11.6187 4.27381C13.0306 3.89811 14.5268 3.99663 15.8773 4.55423C17.2277 5.11182 18.3576 6.09762 19.0932 7.36C19.7538 6.91031 20.534 6.66882 21.3332 6.66666C22.394 6.66666 23.4115 7.08809 24.1616 7.83824C24.9117 8.58838 25.3332 9.6058 25.3332 10.6667C25.3283 11.1226 25.2425 11.574 25.0798 12H25.3332C26.394 12 27.4115 12.4214 28.1616 13.1716C28.9117 13.9217 29.3332 14.9391 29.3332 16C29.3332 17.0609 28.9117 18.0783 28.1616 18.8284C27.4115 19.5786 26.394 20 25.3332 20H6.6665ZM6.6665 16.7867H17.3332L12.9465 12.3867C12.8226 12.2617 12.6751 12.1625 12.5126 12.0948C12.3501 12.0271 12.1759 11.9923 11.9998 11.9923C11.8238 11.9923 11.6495 12.0271 11.4871 12.0948C11.3246 12.1625 11.1771 12.2617 11.0532 12.3867L6.6665 16.7867Z" fill="#0EA5EA"/>
<path d="M22.6667 23.2133V16C22.6667 15.6464 22.5262 15.3072 22.2761 15.0572C22.0261 14.8071 21.687 14.6667 21.3333 14.6667C20.9797 14.6667 20.6406 14.8071 20.3905 15.0572C20.1405 15.3072 20 15.6464 20 16V23.2133H22.6667Z" fill="#0EA5EA"/>
<path opacity="0.3" d="M16 23.2133H26.6667L22.28 27.6133C22.156 27.7383 22.0086 27.8375 21.8461 27.9052C21.6836 27.9729 21.5093 28.0077 21.3333 28.0077C21.1573 28.0077 20.983 27.9729 20.8206 27.9052C20.6581 27.8375 20.5106 27.7383 20.3867 27.6133L16 23.2133Z" fill="#0EA5EA"/>
<path d="M10.6665 16.7867V24C10.6665 24.3536 10.807 24.6928 11.057 24.9428C11.3071 25.1929 11.6462 25.3333 11.9998 25.3333C12.3535 25.3333 12.6926 25.1929 12.9426 24.9428C13.1927 24.6928 13.3332 24.3536 13.3332 24V16.7867H10.6665Z" fill="#0EA5EA"/>
</svg>
