<svg width="20" height="20" viewBox="0 0 20 20" fill="none" xmlns="http://www.w3.org/2000/svg">
<g clip-path="url(#clip0_1224_5762)">
<path d="M19.0383 8.88035L17.7425 7.58475C17.4349 7.2772 17.1829 6.66943 17.1829 6.23357V4.40126C17.1829 3.52963 16.4709 2.81758 15.5995 2.81712H13.7664C13.3311 2.81712 12.7226 2.56463 12.415 2.25731L11.1194 0.961708C10.5038 0.346097 9.49584 0.346097 8.88023 0.961708L7.58463 2.25824C7.2768 2.56579 6.66764 2.81758 6.23322 2.81758H4.40091C3.53044 2.81758 2.81747 3.52963 2.81747 4.40126V6.23361C2.81747 6.66776 2.56549 7.27743 2.25789 7.58479L0.962055 8.8804C0.345982 9.49601 0.345982 10.504 0.962055 11.1205L2.25789 12.4162C2.56568 12.7237 2.81747 13.3331 2.81747 13.7673V15.5997C2.81747 16.4704 3.53044 17.1834 4.40091 17.1834H6.23326C6.66861 17.1834 7.27708 17.4353 7.58468 17.7427L8.88028 19.0388C9.49589 19.6539 10.5038 19.6539 11.1195 19.0388L12.4151 17.7427C12.7229 17.4352 13.3311 17.1834 13.7665 17.1834H15.5995C16.4709 17.1834 17.183 16.4704 17.183 15.5997V13.7673C17.183 13.3313 17.4352 12.7235 17.7425 12.4162L19.0384 11.1205C19.6535 10.504 19.6535 9.49596 19.0383 8.88035ZM8.74297 13.5628L5.24952 10.0688L6.36913 8.94947L8.74325 11.3236L13.6304 6.43763L14.7497 7.55701L8.74297 13.5628Z" fill="url(#paint0_linear_1224_5762)"/>
</g>
<defs>
<linearGradient id="paint0_linear_1224_5762" x1="1.62322" y1="19.5001" x2="21.8041" y2="16.7325" gradientUnits="userSpaceOnUse">
<stop stop-color="#0EA5EA"/>
<stop offset="1" stop-color="#0BD1D1"/>
</linearGradient>
<clipPath id="clip0_1224_5762">
<rect width="19" height="19" fill="white" transform="translate(0.5 0.5)"/>
</clipPath>
</defs>
</svg>
