<svg width="32" height="32" viewBox="0 0 32 32" fill="none" xmlns="http://www.w3.org/2000/svg">
<path opacity="0.3" d="M16 27.1866C16.0348 27.4489 16.1469 27.6949 16.322 27.8933C16.4971 28.0916 16.7272 28.2335 16.9831 28.3006C17.239 28.3678 17.5091 28.3574 17.7591 28.2706C18.009 28.1838 18.2275 28.0246 18.3867 27.8133L25.5333 15.32C25.6473 15.1173 25.7062 14.8883 25.7043 14.6557C25.7024 14.4232 25.6397 14.1952 25.5225 13.9943C25.4052 13.7935 25.2375 13.6268 25.0359 13.5109C24.8343 13.3949 24.6059 13.3337 24.3733 13.3333H16V27.1866Z" fill="#0EA5EA"/>
<path d="M15.9998 4.81332C15.9649 4.55105 15.8528 4.30508 15.6778 4.1067C15.5027 3.90832 15.2726 3.76652 15.0167 3.69932C14.7608 3.63213 14.4907 3.64259 14.2407 3.72937C13.9908 3.81616 13.7723 3.97534 13.6131 4.18666L6.46645 16.68C6.3525 16.8827 6.29355 17.1117 6.29545 17.3443C6.29736 17.5768 6.36006 17.8048 6.47732 18.0056C6.59458 18.2065 6.76233 18.3731 6.96391 18.4891C7.16549 18.605 7.39389 18.6663 7.62645 18.6667H15.9998V4.81332Z" fill="#0EA5EA"/>
</svg>
