<svg width="32" height="32" viewBox="0 0 32 32" fill="none" xmlns="http://www.w3.org/2000/svg">
<path opacity="0.3" d="M22.6664 10.6667V4H9.33303V10.6667C9.33202 10.8421 9.36565 11.0161 9.432 11.1785C9.49835 11.341 9.59612 11.4887 9.7197 11.6133L14.1197 16L9.7197 20.3867C9.59612 20.5113 9.49835 20.659 9.432 20.8215C9.36565 20.9839 9.33202 21.1579 9.33303 21.3333V28H22.6664V21.3333C22.6674 21.1579 22.6337 20.9839 22.5674 20.8215C22.501 20.659 22.4033 20.5113 22.2797 20.3867L17.8797 16L22.2797 11.6133C22.4033 11.4887 22.501 11.341 22.5674 11.1785C22.6337 11.0161 22.6674 10.8421 22.6664 10.6667Z" fill="#0EA5EA"/>
<path d="M23.9998 5.33334H7.99984C7.64622 5.33334 7.30708 5.19286 7.05703 4.94281C6.80698 4.69277 6.6665 4.35363 6.6665 4.00001C6.6665 3.64638 6.80698 3.30724 7.05703 3.0572C7.30708 2.80715 7.64622 2.66667 7.99984 2.66667H23.9998C24.3535 2.66667 24.6926 2.80715 24.9426 3.0572C25.1927 3.30724 25.3332 3.64638 25.3332 4.00001C25.3332 4.35363 25.1927 4.69277 24.9426 4.94281C24.6926 5.19286 24.3535 5.33334 23.9998 5.33334ZM23.9998 26.6667H19.9998V24L16.9465 20.9467C16.8226 20.8217 16.6751 20.7225 16.5126 20.6548C16.3501 20.5871 16.1759 20.5523 15.9998 20.5523C15.8238 20.5523 15.6495 20.5871 15.4871 20.6548C15.3246 20.7225 15.1771 20.8217 15.0532 20.9467L11.9998 24V26.6667H7.99984C7.64622 26.6667 7.30708 26.8071 7.05703 27.0572C6.80698 27.3072 6.6665 27.6464 6.6665 28C6.6665 28.3536 6.80698 28.6928 7.05703 28.9428C7.30708 29.1929 7.64622 29.3333 7.99984 29.3333H23.9998C24.3535 29.3333 24.6926 29.1929 24.9426 28.9428C25.1927 28.6928 25.3332 28.3536 25.3332 28C25.3332 27.6464 25.1927 27.3072 24.9426 27.0572C24.6926 26.8071 24.3535 26.6667 23.9998 26.6667ZM12.5465 10.6667L15.0532 13.1733C15.1771 13.2983 15.3246 13.3975 15.4871 13.4652C15.6495 13.5329 15.8238 13.5677 15.9998 13.5677C16.1759 13.5677 16.3501 13.5329 16.5126 13.4652C16.6751 13.3975 16.8226 13.2983 16.9465 13.1733L19.4532 10.6667H12.5465Z" fill="#0EA5EA"/>
</svg>
