<svg width="32" height="32" viewBox="0 0 32 32" fill="none" xmlns="http://www.w3.org/2000/svg">
<path d="M20.5737 11.4266L14.3337 20.1866C14.1979 20.3786 14.1153 20.603 14.0942 20.8372C14.0732 21.0713 14.1144 21.3069 14.2137 21.52L17.6004 28.6C17.7083 28.8203 17.8749 29.0067 18.082 29.1384C18.289 29.2701 18.5284 29.3422 18.7737 29.3466C19.0293 29.334 19.2758 29.248 19.4838 29.0991C19.6919 28.9501 19.8527 28.7445 19.947 28.5066L29.187 4.50664C29.2628 4.27859 29.2756 4.03429 29.224 3.79958C29.1723 3.56488 29.0582 3.34849 28.8937 3.17331L20.5737 11.4266Z" fill="#0EA5EA"/>
<path opacity="0.3" d="M27.5602 2.74665L3.50682 12C3.26899 12.0943 3.06332 12.2551 2.91438 12.4632C2.76543 12.6712 2.67949 12.9178 2.66682 13.1733C2.66125 13.4277 2.7286 13.6784 2.86091 13.8958C2.99321 14.1131 3.18495 14.2881 3.41349 14.4L10.4935 17.7867C10.7066 17.886 10.9422 17.9272 11.1763 17.9061C11.4105 17.885 11.6349 17.8024 11.8268 17.6667L20.5868 11.4267L28.9602 3.05332C28.7802 2.87422 28.5529 2.75021 28.3049 2.69589C28.0569 2.64156 27.7985 2.65918 27.5602 2.74665Z" fill="#0EA5EA"/>
</svg>
