<svg width="57" height="57" viewBox="0 0 57 57" fill="none" xmlns="http://www.w3.org/2000/svg">
<g clip-path="url(#clip0_1224_2924)">
<path d="M32.967 33.1188L37.5703 36.1262C38.1183 36.4842 38.4596 36.9814 38.594 37.6177C38.7281 38.2539 38.6174 38.8476 38.2612 39.3987L37.8341 40.0596C36.8903 41.5197 35.5709 42.4304 33.8755 42.7922C32.1804 43.1537 30.6066 42.8602 29.1544 41.9115L27.8393 41.0523C27.4832 40.8197 27.0904 40.7493 26.6609 40.8407C26.2315 40.9325 25.9011 41.1572 25.6696 41.5154L23.9602 44.1601C23.7288 44.5182 23.6586 44.9134 23.7496 45.3451C23.841 45.7766 24.0644 46.109 24.4206 46.3417L25.7357 47.2009C27.1606 48.1318 28.7005 48.7407 30.3557 49.0291C32.011 49.317 33.6183 49.2944 35.1781 48.9615C36.7375 48.629 38.2151 47.993 39.6114 47.0538C41.0076 46.1146 42.1687 44.9288 43.0945 43.4963L52.4953 28.9517C53.2078 27.8492 53.4295 26.6626 53.161 25.3897C52.8921 24.1173 52.2095 23.1229 51.1136 22.407L43.222 17.2514C42.1262 16.5354 40.9454 16.3124 39.6796 16.5823C38.4138 16.8528 37.4252 17.5383 36.7126 18.6408L31.585 26.574C30.8726 27.6763 30.6512 28.863 30.92 30.1362C31.1886 31.4084 31.8712 32.4029 32.967 33.1188Z" fill="#222F43"/>
<path d="M12.506 18.1064C12.7746 19.3786 13.4569 20.373 14.5531 21.0891L19.1563 24.0964C19.704 24.4542 20.0458 24.9517 20.1795 25.5876C20.314 26.224 20.2029 26.8175 19.8467 27.3686L19.4196 28.0294C18.4758 29.4895 17.1564 30.4002 15.4615 30.7624C13.7668 31.1241 12.193 30.8307 10.7401 29.8815L9.4253 29.0225C9.06908 28.7898 8.67612 28.7193 8.24684 28.8109C7.81761 28.9027 7.48674 29.1272 7.25526 29.4853L5.54584 32.1301C5.31441 32.4882 5.24456 32.8835 5.33551 33.3152C5.4267 33.7465 5.6503 34.0791 6.00659 34.3119L7.32141 35.1709C8.74714 36.1023 10.2867 36.7111 11.9423 36.9996C13.5973 37.2874 15.2043 37.2645 16.764 36.9317C18.3235 36.5992 19.8016 35.9635 21.1976 35.0241C22.5936 34.0849 23.7551 32.8993 24.6809 31.4668L34.0817 16.9221C34.7943 15.8196 35.0155 14.6328 34.7473 13.3601C34.4786 12.0878 33.7962 11.0936 32.7002 10.3775L24.809 5.22221C23.7129 4.50609 22.5322 4.28307 21.2667 4.55319C20.0004 4.82335 19.0124 5.50925 18.2998 6.61173L13.1722 14.545C12.4597 15.6473 12.2377 16.8336 12.506 18.1064Z" fill="#222F43"/>
</g>
<defs>
<clipPath id="clip0_1224_2924">
<rect width="40.846" height="40.935" fill="white" transform="matrix(-0.837177 -0.546932 0.542824 -0.839847 34.5479 56.7192)"/>
</clipPath>
</defs>
</svg>
