<svg width="32" height="32" viewBox="0 0 32 32" fill="none" xmlns="http://www.w3.org/2000/svg">
<path d="M17.3333 8.12002C18.4929 8.31725 19.5947 8.76774 20.5603 9.43941C21.5258 10.1111 22.3314 10.9874 22.9196 12.006C23.5079 13.0245 23.8642 14.1603 23.9634 15.3323C24.0626 16.5043 23.9021 17.6838 23.4933 18.7867L26.7867 20.6933C26.9554 20.7933 27.1442 20.8548 27.3395 20.8735C27.5347 20.8922 27.7317 20.8675 27.9164 20.8013C28.101 20.7351 28.2688 20.6289 28.4077 20.4904C28.5466 20.3519 28.6532 20.1845 28.72 20C29.1329 18.7071 29.3398 17.3573 29.3333 16C29.3325 12.9765 28.3041 10.0431 26.4168 7.68092C24.5295 5.31877 21.8954 3.66821 18.9467 3.00002C18.7498 2.95767 18.5458 2.96048 18.3502 3.00825C18.1545 3.05601 17.9722 3.14747 17.8169 3.27578C17.6617 3.40409 17.5375 3.5659 17.4538 3.74906C17.37 3.93223 17.3288 4.13199 17.3333 4.33335V8.12002Z" fill="#0EA5EA"/>
<path opacity="0.3" d="M25.44 23C25.6138 23.0984 25.7632 23.2345 25.8773 23.3984C25.9914 23.5622 26.0673 23.7496 26.0993 23.9467C26.1313 24.1438 26.1186 24.3456 26.0622 24.5371C26.0058 24.7286 25.907 24.9051 25.7733 25.0533C24.5253 26.3982 23.0131 27.471 21.3314 28.2047C19.6497 28.9383 17.8347 29.317 16 29.317C14.1652 29.317 12.3502 28.9383 10.6686 28.2047C8.98687 27.471 7.4747 26.3982 6.22665 25.0533C6.09292 24.9051 5.9942 24.7286 5.93778 24.5371C5.88136 24.3456 5.86868 24.1438 5.90067 23.9467C5.93267 23.7496 6.00853 23.5622 6.12264 23.3984C6.23675 23.2345 6.38621 23.0984 6.55998 23L9.83998 21.0933C10.5907 21.9993 11.5319 22.7285 12.5967 23.229C13.6614 23.7295 14.8235 23.989 16 23.989C17.1765 23.989 18.3386 23.7295 19.4033 23.229C20.4681 22.7285 21.4093 21.9993 22.16 21.0933L25.44 23ZM8.50665 18.7867C8.09793 17.6838 7.93743 16.5043 8.0366 15.3323C8.13576 14.1603 8.49214 13.0245 9.08036 12.006C9.66858 10.9874 10.4742 10.1111 11.4397 9.43941C12.4053 8.76774 13.5071 8.31724 14.6667 8.12001V4.30668C14.6712 4.10532 14.63 3.90556 14.5462 3.72239C14.4625 3.53923 14.3383 3.37741 14.183 3.24911C14.0278 3.1208 13.8455 3.02933 13.6498 2.98157C13.4542 2.93381 13.2502 2.931 13.0533 2.97335C10.1001 3.64255 7.46264 5.29706 5.57486 7.66466C3.68708 10.0323 2.66143 12.9719 2.66665 16C2.66016 17.3573 2.86714 18.7071 3.27999 20C3.34244 20.1879 3.44596 20.3595 3.58302 20.5024C3.72008 20.6453 3.88725 20.7559 4.07238 20.8261C4.25751 20.8963 4.45596 20.9244 4.65331 20.9084C4.85066 20.8924 5.04196 20.8326 5.21332 20.7333L8.50665 18.7867Z" fill="#0EA5EA"/>
</svg>
