<svg width="32" height="32" viewBox="0 0 32 32" fill="none" xmlns="http://www.w3.org/2000/svg">
<g opacity="0.3">
<path opacity="0.3" d="M5.39991 20.2667C11.1199 10.36 18.1066 4.34667 27.9066 2.66667C28.1017 2.63111 28.3026 2.64342 28.492 2.70254C28.6813 2.76165 28.8536 2.86581 28.9938 3.00609C29.1341 3.14636 29.2383 3.31856 29.2974 3.50793C29.3565 3.69729 29.3688 3.89817 29.3332 4.09334C27.6532 13.8933 21.6399 20.88 11.7332 26.6667L5.39991 20.2667ZM5.09324 23.12L3.50658 27.2667C3.43945 27.4381 3.42377 27.6254 3.46144 27.8056C3.49911 27.9858 3.58851 28.1511 3.71868 28.2812C3.84885 28.4114 4.01416 28.5008 4.19435 28.5385C4.37455 28.5761 4.56182 28.5605 4.73324 28.4933L8.87991 26.9067L5.09324 23.12ZM21.9999 8C21.6043 8 21.2177 8.1173 20.8888 8.33706C20.5599 8.55683 20.3035 8.86918 20.1522 9.23464C20.0008 9.60009 19.9612 10.0022 20.0383 10.3902C20.1155 10.7781 20.306 11.1345 20.5857 11.4142C20.8654 11.6939 21.2218 11.8844 21.6097 11.9616C21.9977 12.0387 22.3998 11.9991 22.7653 11.8478C23.1307 11.6964 23.4431 11.44 23.6628 11.1111C23.8826 10.7822 23.9999 10.3956 23.9999 10C23.9999 9.46957 23.7892 8.96086 23.4141 8.58579C23.039 8.21072 22.5303 8 21.9999 8Z" fill="#0EA5EA"/>
</g>
<path d="M5.3999 20.2667L2.9999 17.8533C2.87653 17.7313 2.78319 17.5823 2.72726 17.418C2.67133 17.2538 2.65433 17.0788 2.6776 16.9068C2.70087 16.7348 2.76378 16.5707 2.86136 16.4272C2.95895 16.2837 3.08853 16.1648 3.2399 16.08L12.1999 11.0533C9.56025 13.8308 7.27608 16.9257 5.3999 20.2667ZM11.7332 26.6667L14.1466 29.0667C14.2686 29.19 14.4176 29.2834 14.5819 29.3393C14.7461 29.3952 14.9211 29.4122 15.0931 29.389C15.2651 29.3657 15.4292 29.3028 15.5727 29.2052C15.7162 29.1076 15.8351 28.978 15.9199 28.8267L20.9466 19.8667C18.1691 22.5063 15.0742 24.7905 11.7332 26.6667ZM9.33324 24.2533L16.7332 16.8533C16.9167 16.6301 17.0103 16.3465 16.9956 16.0579C16.9809 15.7693 16.8591 15.4966 16.654 15.2932C16.4488 15.0897 16.1752 14.9701 15.8865 14.9578C15.5978 14.9455 15.3149 15.0414 15.0932 15.2267L7.74657 22.6667L9.33324 24.2533Z" fill="#0EA5EA"/>
</svg>
