<svg width="16" height="16" viewBox="0 0 16 16" fill="none" xmlns="http://www.w3.org/2000/svg">
<path d="M5.39335 7.7534H2.26668C2.32002 4.64006 2.93335 4.12672 4.84668 2.99339C5.06668 2.86005 5.14001 2.58006 5.00667 2.35339C4.87334 2.13339 4.59333 2.06006 4.36666 2.1934C2.11333 3.52673 1.32666 4.34005 1.32666 8.22005V11.8134C1.32666 12.9534 2.25334 13.8734 3.38668 13.8734H5.38668C6.56001 13.8734 7.44666 12.9867 7.44666 11.8134V9.81339C7.45332 8.64006 6.56668 7.7534 5.39335 7.7534Z" fill="#0EA5EA"/>
<path opacity="0.4" d="M12.6067 7.7534H9.48002C9.53335 4.64006 10.1467 4.12672 12.0601 2.99339C12.2801 2.86005 12.3534 2.58006 12.2201 2.35339C12.0867 2.13339 11.8067 2.06006 11.58 2.1934C9.3267 3.52673 8.54004 4.34005 8.54004 8.22005V11.8134C8.54004 12.9534 9.46672 13.8734 10.6001 13.8734H12.6001C13.7734 13.8734 14.66 12.9867 14.66 11.8134V9.81339C14.6667 8.64006 13.78 7.7534 12.6067 7.7534Z" fill="#0EA5EA"/>
</svg>
